<?xml version="1.0" encoding="utf-8"?>
<!-- Generator: Adobe Illustrator 27.7.0, SVG Export Plug-In . SVG Version: 6.00 Build 0)  -->
<svg version="1.1" id="Layer_1" xmlns="http://www.w3.org/2000/svg" xmlns:xlink="http://www.w3.org/1999/xlink" x="0px" y="0px"
	 viewBox="0 0 288 288" style="enable-background:new 0 0 288 288;" xml:space="preserve">
<g>
	<path d="M210.1,2.8C210.1,2.8,210.1,2.8,210.1,2.8C210.1,2.8,210.1,2.8,210.1,2.8C210.1,2.8,210.2,2.8,210.1,2.8
		C210.2,2.8,210.1,2.8,210.1,2.8z"/>
	<path d="M64.6,7.5C64.6,7.5,64.6,7.5,64.6,7.5C64.6,7.5,64.6,7.5,64.6,7.5C64.6,7.5,64.7,7.5,64.6,7.5C64.7,7.5,64.6,7.5,64.6,7.5z
		"/>
	<path d="M73.3,4.3c0-0.1,0-0.1-0.1-0.1s-0.1,0-0.1,0.1C73.1,4.3,73.2,4.4,73.3,4.3C73.3,4.4,73.3,4.3,73.3,4.3z"/>
	<path d="M82.5,1.3c-0.1,0-0.2,0.1-0.2,0.2s0.1,0.1,0.2,0.1s0.2-0.1,0.2-0.1S82.6,1.3,82.5,1.3z"/>
	<circle cx="200.1" cy="2.2" r="0.2"/>
	<path d="M209.3,5.1c0-0.1-0.1-0.2-0.1-0.2c-0.1,0-0.2,0.1-0.2,0.2c0,0.1,0.1,0.1,0.2,0.1C209.2,5.3,209.3,5.2,209.3,5.1z"/>
	<path d="M217.7,8.5c0-0.1,0-0.1-0.1-0.1s-0.1,0-0.1,0.1c0,0.1,0,0.1,0.1,0.1S217.7,8.5,217.7,8.5z"/>
	<path d="M225.3,12.1C225.3,12.1,225.2,12,225.3,12.1C225.2,12,225.2,12.1,225.3,12.1C225.2,12.1,225.2,12.2,225.3,12.1
		C225.2,12.2,225.3,12.1,225.3,12.1z"/>
	<path d="M49.3,17.8C49.3,17.8,49.3,17.8,49.3,17.8C49.3,17.8,49.3,17.8,49.3,17.8C49.3,17.8,49.3,17.8,49.3,17.8
		C49.3,17.8,49.3,17.8,49.3,17.8z"/>
	<path d="M57.1,14.1C57,14.1,57,14.1,57.1,14.1c-0.1,0.1,0,0.2,0,0.2S57.2,14.2,57.1,14.1C57.2,14.1,57.1,14.1,57.1,14.1z"/>
	<path d="M65.6,10.7c-0.1,0-0.2,0.1-0.2,0.1c0,0.1,0.1,0.2,0.2,0.2s0.1-0.1,0.1-0.2C65.8,10.8,65.7,10.7,65.6,10.7z"/>
	<path d="M75.2,7.9c0-0.1-0.1-0.2-0.2-0.2c-0.1,0-0.2,0.1-0.2,0.2c0,0.1,0.1,0.2,0.2,0.2C75.1,8.1,75.2,8,75.2,7.9z"/>
	<circle cx="85" cy="5.3" r="0.3"/>
	<path d="M95.9,3.1c0-0.2-0.2-0.4-0.4-0.4c-0.2,0-0.4,0.2-0.4,0.4c0,0.2,0.2,0.4,0.4,0.4C95.8,3.5,95.9,3.3,95.9,3.1z"/>
	<path d="M106.6,1.9c0.3,0,0.5-0.2,0.5-0.5c0-0.3-0.2-0.5-0.5-0.5s-0.5,0.2-0.5,0.5C106.2,1.7,106.4,1.9,106.6,1.9z"/>
	<path d="M117.5,0.2c0,0.3,0.2,0.5,0.5,0.5s0.5-0.2,0.5-0.5c0-0.3-0.2-0.5-0.5-0.5C117.8-0.3,117.5-0.1,117.5,0.2z"/>
	<circle cx="129.8" cy="-0.6" r="0.6"/>
	<path d="M153.4,0.2c0.3,0,0.6-0.3,0.6-0.6c0-0.3-0.3-0.6-0.6-0.6c-0.3,0-0.6,0.3-0.6,0.6C152.8-0.1,153.1,0.2,153.4,0.2z"/>
	<path d="M164.5,0.5c0,0.3,0.3,0.6,0.6,0.6c0.3,0,0.6-0.3,0.6-0.6s-0.3-0.6-0.6-0.6C164.7-0.2,164.5,0.1,164.5,0.5z"/>
	<circle cx="176.4" cy="1.8" r="0.6"/>
	<path d="M187.9,3.7c0-0.3-0.2-0.5-0.5-0.5c-0.3,0-0.5,0.2-0.5,0.5c0,0.3,0.2,0.5,0.5,0.5C187.7,4.2,187.9,4,187.9,3.7z"/>
	<path d="M197.8,5.5c-0.2,0-0.4,0.2-0.4,0.4s0.2,0.5,0.4,0.5s0.5-0.2,0.5-0.5S198,5.5,197.8,5.5z"/>
	<circle cx="207.6" cy="8.7" r="0.4"/>
	<path d="M217,11.8c0-0.2-0.1-0.3-0.3-0.3c-0.2,0-0.3,0.1-0.3,0.3s0.1,0.3,0.3,0.3C216.9,12,217,11.9,217,11.8z"/>
	<path d="M224.9,15.2c0,0.1,0.1,0.2,0.2,0.2s0.2-0.1,0.2-0.2c0-0.1-0.1-0.2-0.2-0.2S224.9,15,224.9,15.2z"/>
	<circle cx="232.6" cy="18.8" r="0.1"/>
	<path d="M239.4,22.8C239.4,22.7,239.3,22.7,239.4,22.8c-0.1-0.1-0.2,0-0.2,0C239.2,22.8,239.2,22.9,239.4,22.8
		C239.3,22.9,239.4,22.8,239.4,22.8z"/>
	<path d="M245,26.9C245,26.9,245,27,245,26.9C245,27,245,27,245,26.9C245.1,27,245.1,27,245,26.9C245.1,27,245.1,26.9,245,26.9z"/>
	<path d="M35.2,29.3C35.2,29.3,35.2,29.3,35.2,29.3C35.2,29.3,35.2,29.3,35.2,29.3C35.2,29.3,35.3,29.3,35.2,29.3
		C35.3,29.3,35.2,29.3,35.2,29.3z"/>
	<path d="M41.9,25.4C41.9,25.4,41.8,25.4,41.9,25.4c-0.1,0.2-0.1,0.2,0,0.2s0.1,0,0.1-0.1C42,25.4,42,25.4,41.9,25.4z"/>
	<path d="M49.5,22c0.1,0,0.2-0.1,0.2-0.2c0-0.1-0.1-0.2-0.2-0.2c-0.1,0-0.2,0.1-0.2,0.2C49.3,22,49.4,22,49.5,22z"/>
	<circle cx="58" cy="18.5" r="0.3"/>
	<path d="M67.7,15.4c0-0.2-0.2-0.4-0.4-0.4c-0.2,0-0.4,0.2-0.4,0.4c0,0.2,0.2,0.4,0.4,0.4C67.5,15.8,67.7,15.6,67.7,15.4z"/>
	<circle cx="77.3" cy="12.7" r="0.5"/>
	<path d="M88.6,10.3c0-0.3-0.3-0.6-0.6-0.6s-0.6,0.3-0.6,0.6s0.3,0.6,0.6,0.6S88.6,10.7,88.6,10.3z"/>
	<path d="M99.3,7.7c-0.4,0-0.7,0.3-0.7,0.7c0,0.4,0.3,0.7,0.7,0.7s0.7-0.3,0.7-0.7C100,8,99.7,7.7,99.3,7.7z"/>
	<circle cx="111.1" cy="6.9" r="0.8"/>
	<circle cx="123.2" cy="6" r="0.8"/>
	<circle cx="135.5" cy="5.5" r="0.9"/>
	<circle cx="147.9" cy="5.6" r="0.9"/>
	<path d="M160.1,5.3c-0.5,0-0.8,0.4-0.8,0.8c0,0.5,0.4,0.9,0.8,0.9c0.5,0,0.9-0.4,0.9-0.9C161,5.7,160.6,5.3,160.1,5.3z"/>
	<circle cx="172.2" cy="7.3" r="0.8"/>
	<circle cx="183.8" cy="8.9" r="0.8"/>
	<circle cx="194.9" cy="11" r="0.7"/>
	<path d="M205.5,12.8c-0.3,0-0.6,0.3-0.6,0.6c0,0.3,0.3,0.6,0.6,0.6c0.3,0,0.6-0.3,0.6-0.6C206.1,13.1,205.8,12.8,205.5,12.8z"/>
	<path d="M215.8,16.2c0-0.3-0.2-0.5-0.5-0.5c-0.3,0-0.5,0.2-0.5,0.5s0.2,0.5,0.5,0.5C215.6,16.7,215.8,16.5,215.8,16.2z"/>
	<path d="M224.7,19.4c0-0.2-0.2-0.4-0.4-0.4c-0.2,0-0.4,0.2-0.4,0.4c0,0.2,0.2,0.4,0.4,0.4C224.6,19.8,224.7,19.6,224.7,19.4z"/>
	<path d="M232.3,22.8c0,0.1,0.1,0.3,0.3,0.3c0.1,0,0.3-0.1,0.3-0.3c0-0.1-0.1-0.3-0.3-0.3C232.4,22.6,232.3,22.7,232.3,22.8z"/>
	<path d="M240.1,26.5c0-0.1-0.1-0.2-0.2-0.2c-0.1,0-0.2,0.1-0.2,0.2c0,0.1,0.1,0.2,0.2,0.2C240,26.7,240.1,26.6,240.1,26.5z"/>
	<circle cx="246.4" cy="30.4" r="0.1"/>
	<path d="M251.9,34.5C251.8,34.5,251.8,34.5,251.9,34.5C251.8,34.5,251.8,34.5,251.9,34.5C251.9,34.5,251.9,34.5,251.9,34.5
		C251.9,34.5,251.9,34.5,251.9,34.5z"/>
	<path d="M28.3,37.8C28.3,37.8,28.3,37.8,28.3,37.8C28.3,37.8,28.3,37.8,28.3,37.8C28.3,37.8,28.3,37.8,28.3,37.8
		C28.3,37.8,28.3,37.8,28.3,37.8z"/>
	<path d="M34.8,34C34.8,34,34.8,33.9,34.8,34c-0.2-0.1-0.2-0.1-0.2,0c0,0.1,0,0.1,0.1,0.1S34.8,34.1,34.8,34z"/>
	<path d="M41.9,30.5c0,0.1,0.1,0.2,0.2,0.2s0.2-0.1,0.2-0.2c0-0.1-0.1-0.2-0.2-0.2S41.9,30.3,41.9,30.5z"/>
	<path d="M50.3,26.8c-0.2,0-0.3,0.1-0.3,0.3s0.1,0.3,0.3,0.3c0.2,0,0.3-0.1,0.3-0.3S50.5,26.8,50.3,26.8z"/>
	<circle cx="59.5" cy="24" r="0.5"/>
	<path d="M69.5,20.6c-0.3,0-0.6,0.3-0.6,0.6s0.3,0.6,0.6,0.6s0.6-0.3,0.6-0.6S69.8,20.6,69.5,20.6z"/>
	<path d="M81,18.7c0-0.4-0.3-0.7-0.7-0.7s-0.7,0.3-0.7,0.7c0,0.4,0.3,0.7,0.7,0.7S81,19.1,81,18.7z"/>
	<path d="M92.5,16.6c0-0.5-0.4-0.8-0.9-0.8c-0.5,0-0.8,0.4-0.8,0.8c0,0.5,0.4,0.8,0.8,0.8C92.1,17.4,92.5,17,92.5,16.6z"/>
	<path d="M103.7,13.9c-0.5,0-1,0.4-1,1c0,0.5,0.4,1,1,1c0.5,0,1-0.4,1-1C104.6,14.3,104.2,13.9,103.7,13.9z"/>
	<path d="M116.1,12.6c-0.6,0-1,0.5-1,1.1c0,0.6,0.5,1,1,1s1-0.5,1-1C117.2,13.1,116.7,12.6,116.1,12.6z"/>
	<circle cx="128.9" cy="12.9" r="1.1"/>
	<circle cx="141.8" cy="12.7" r="1.2"/>
	<path d="M153.5,13.1c0,0.6,0.5,1.2,1.2,1.2c0.7,0,1.2-0.5,1.2-1.2c0-0.6-0.5-1.2-1.2-1.2S153.5,12.4,153.5,13.1z"/>
	<path d="M167.3,12.8c-0.6,0-1.1,0.5-1.1,1.2s0.5,1.2,1.1,1.2c0.6,0,1.2-0.5,1.2-1.2S167.9,12.8,167.3,12.8z"/>
	<circle cx="179.6" cy="15.3" r="1.1"/>
	<path d="M192.5,17.1c0-0.6-0.5-1-1.1-1c-0.6,0-1,0.5-1,1c0,0.6,0.5,1,1,1C192.1,18.2,192.5,17.7,192.5,17.1z"/>
	<path d="M203.7,19.3c0-0.5-0.4-1-1-1c-0.5,0-0.9,0.4-0.9,1c0,0.5,0.4,0.9,0.9,0.9C203.2,20.3,203.7,19.9,203.7,19.3z"/>
	<circle cx="213.3" cy="21.9" r="0.8"/>
	<path d="M223.7,24.8c0-0.4-0.3-0.7-0.7-0.7c-0.4,0-0.7,0.3-0.7,0.7c0,0.4,0.3,0.7,0.7,0.7C223.4,25.5,223.7,25.2,223.7,24.8z"/>
	<circle cx="232" cy="28" r="0.6"/>
	<path d="M239.6,31.4c0,0.2,0.2,0.4,0.4,0.4c0.2,0,0.4-0.2,0.4-0.4S240.2,31,240,31C239.8,31,239.6,31.2,239.6,31.4z"/>
	<circle cx="247.1" cy="35.1" r="0.3"/>
	<path d="M253.4,38.8c0-0.1-0.1-0.2-0.2-0.2c-0.1,0-0.2,0.1-0.2,0.2c0,0.1,0.1,0.2,0.2,0.2C253.3,39,253.4,38.9,253.4,38.8z"/>
	<path d="M258.4,42.7C258.3,42.7,258.3,42.7,258.4,42.7c-0.1,0.1,0,0.2,0,0.2S258.5,42.8,258.4,42.7
		C258.5,42.7,258.4,42.7,258.4,42.7z"/>
	<path d="M262.5,46.8C262.5,46.8,262.5,46.8,262.5,46.8C262.5,46.9,262.5,46.9,262.5,46.8C262.5,46.9,262.5,46.9,262.5,46.8
		C262.5,46.8,262.5,46.8,262.5,46.8z"/>
	<path d="M16.6,50.6C16.6,50.6,16.6,50.6,16.6,50.6C16.6,50.7,16.6,50.7,16.6,50.6C16.6,50.7,16.7,50.7,16.6,50.6
		C16.7,50.6,16.6,50.6,16.6,50.6z"/>
	<path d="M21.7,46.8c-0.1,0-0.1,0.1-0.1,0.1s0,0.1,0.1,0.1c0,0,0.1,0,0.1-0.1S21.7,46.8,21.7,46.8z"/>
	<circle cx="27.7" cy="43.4" r="0.2"/>
	<path d="M34.5,39.9c0,0.2,0.2,0.4,0.3,0.4s0.4-0.2,0.4-0.4s-0.2-0.3-0.4-0.3S34.5,39.7,34.5,39.9z"/>
	<path d="M42.8,36.2c-0.3,0-0.5,0.2-0.5,0.5s0.2,0.5,0.5,0.5s0.5-0.2,0.5-0.5S43.1,36.2,42.8,36.2z"/>
	<path d="M52.4,33.5c0-0.4-0.3-0.6-0.6-0.6c-0.4,0-0.7,0.3-0.7,0.6s0.3,0.7,0.7,0.7C52.1,34.2,52.4,33.9,52.4,33.5z"/>
	<circle cx="61.6" cy="30.7" r="0.8"/>
	<path d="M72.3,27.2c-0.5,0-1,0.4-1,1c0,0.5,0.4,1,1,1c0.5,0,1-0.4,1-1C73.3,27.6,72.8,27.2,72.3,27.2z"/>
	<path d="M83.8,24.8c-0.6,0-1.1,0.5-1.1,1.1s0.5,1.1,1.1,1.1c0.6,0,1.1-0.5,1.1-1.1S84.4,24.8,83.8,24.8z"/>
	<circle cx="95.9" cy="24" r="1.2"/>
	<circle cx="108.6" cy="22.5" r="1.4"/>
	<circle cx="121.7" cy="21.6" r="1.5"/>
	<circle cx="135.1" cy="21.1" r="1.5"/>
	<path d="M147,21.2c0,0.8,0.7,1.5,1.5,1.5c0.8,0,1.5-0.7,1.5-1.5c0-0.8-0.7-1.5-1.5-1.5C147.7,19.7,147,20.3,147,21.2z"/>
	<circle cx="161.9" cy="21.8" r="1.5"/>
	<path d="M173.5,22.9c0,0.8,0.6,1.4,1.4,1.4c0.8,0,1.4-0.6,1.4-1.4c0-0.8-0.6-1.4-1.4-1.4C174.1,21.5,173.5,22.1,173.5,22.9z"/>
	<path d="M186.1,24.5c0,0.8,0.6,1.4,1.3,1.4c0.7,0,1.4-0.6,1.4-1.4s-0.6-1.3-1.4-1.3S186.1,23.7,186.1,24.5z"/>
	<path d="M198.2,26.5c0,0.7,0.6,1.2,1.2,1.2c0.7,0,1.2-0.5,1.2-1.2c0-0.7-0.5-1.2-1.2-1.2S198.2,25.8,198.2,26.5z"/>
	<path d="M209.5,28.8c0,0.6,0.5,1.1,1.1,1.1c0.6,0,1.1-0.5,1.1-1.1s-0.5-1.1-1.1-1.1C210,27.7,209.5,28.2,209.5,28.8z"/>
	<path d="M221.1,30.5c-0.5,0-0.9,0.4-0.9,0.9c0,0.5,0.4,0.9,0.9,0.9c0.5,0,0.9-0.4,0.9-0.9C222,31,221.6,30.5,221.1,30.5z"/>
	<path d="M230.7,33.6c-0.4,0-0.8,0.3-0.8,0.8c0,0.4,0.3,0.8,0.8,0.8c0.4,0,0.8-0.3,0.8-0.8C231.5,34,231.1,33.6,230.7,33.6z"/>
	<path d="M238.8,37.5c0,0.3,0.3,0.6,0.6,0.6c0.3,0,0.6-0.3,0.6-0.6c0-0.3-0.3-0.6-0.6-0.6C239.1,36.9,238.8,37.2,238.8,37.5z"/>
	<path d="M247.2,41.3c0.2,0,0.5-0.2,0.5-0.5s-0.2-0.5-0.5-0.5s-0.4,0.2-0.4,0.5S246.9,41.3,247.2,41.3z"/>
	<path d="M254.2,44.3c0-0.2-0.1-0.3-0.3-0.3c-0.2,0-0.3,0.1-0.3,0.3c0,0.2,0.1,0.3,0.3,0.3C254.1,44.7,254.2,44.5,254.2,44.3z"/>
	<path d="M259.9,48c0-0.1-0.1-0.2-0.2-0.2c-0.1,0-0.2,0.1-0.2,0.2c0,0.1,0.1,0.2,0.2,0.2C259.8,48.1,259.9,48.1,259.9,48z"/>
	<path d="M264.6,51.7C264.6,51.6,264.5,51.6,264.6,51.7c-0.1-0.1-0.2-0.1-0.2,0C264.4,51.8,264.5,51.8,264.6,51.7
		C264.5,51.8,264.6,51.8,264.6,51.7z"/>
	<path d="M15.6,56.7C15.6,56.7,15.5,56.7,15.6,56.7c-0.1-0.1-0.2,0-0.2,0S15.4,56.8,15.6,56.7C15.5,56.8,15.6,56.8,15.6,56.7z"/>
	<path d="M21.3,53.4c0-0.1-0.1-0.2-0.2-0.2c-0.1,0-0.2,0.1-0.2,0.2s0.1,0.2,0.2,0.2C21.2,53.5,21.3,53.5,21.3,53.4z"/>
	<circle cx="27.8" cy="50.1" r="0.3"/>
	<path d="M35,47c0,0.3,0.2,0.5,0.5,0.5S36,47.2,36,47s-0.2-0.5-0.5-0.5S35,46.7,35,47z"/>
	<path d="M44.2,44.6c0.4,0,0.7-0.3,0.7-0.7s-0.3-0.7-0.7-0.7s-0.6,0.3-0.6,0.7S43.8,44.6,44.2,44.6z"/>
	<path d="M53.8,40.3c-0.5,0-0.8,0.4-0.8,0.8c0,0.5,0.4,0.8,0.8,0.8c0.5,0,0.9-0.4,0.9-0.8C54.7,40.7,54.3,40.3,53.8,40.3z"/>
	<path d="M63.3,38.6c0,0.6,0.5,1,1.1,1c0.6,0,1-0.5,1-1c0-0.6-0.5-1.1-1-1.1C63.8,37.5,63.3,38,63.3,38.6z"/>
	<path d="M75.7,37.5c0.7,0,1.2-0.5,1.2-1.2c0-0.7-0.6-1.2-1.2-1.2s-1.2,0.5-1.2,1.2C74.5,36.9,75.1,37.5,75.7,37.5z"/>
	<path d="M86.5,34.2c0,0.8,0.6,1.4,1.4,1.4c0.8,0,1.4-0.6,1.4-1.4s-0.6-1.4-1.4-1.4C87.2,32.8,86.5,33.5,86.5,34.2z"/>
	<path d="M100.8,31c-0.9,0-1.6,0.7-1.6,1.6s0.7,1.6,1.6,1.6c0.9,0,1.6-0.7,1.6-1.6S101.7,31,100.8,31z"/>
	<path d="M114.2,29.7c-0.9,0-1.7,0.8-1.7,1.7s0.8,1.7,1.7,1.7s1.7-0.8,1.7-1.7S115.1,29.7,114.2,29.7z"/>
	<circle cx="128" cy="30.7" r="1.8"/>
	<circle cx="141.9" cy="30.5" r="1.9"/>
	<path d="M157.7,30.8c0-1-0.8-1.9-1.9-1.9c-1,0-1.9,0.8-1.9,1.9c0,1,0.8,1.9,1.9,1.9C156.9,32.7,157.7,31.9,157.7,30.8z"/>
	<path d="M169.5,29.8c-1,0-1.9,0.8-1.9,1.9s0.8,1.8,1.9,1.8s1.8-0.8,1.8-1.8S170.5,29.8,169.5,29.8z"/>
	<path d="M181,33c0,1,0.8,1.8,1.8,1.8c1,0,1.8-0.8,1.8-1.8c0-1-0.8-1.8-1.8-1.8C181.8,31.3,181,32,181,33z"/>
	<path d="M193.8,34.8c0,0.9,0.8,1.7,1.7,1.7s1.7-0.8,1.7-1.7c0-0.9-0.8-1.7-1.7-1.7S193.8,33.9,193.8,34.8z"/>
	<path d="M205.9,36.9c0,0.9,0.7,1.5,1.5,1.5c0.9,0,1.6-0.7,1.6-1.5s-0.7-1.5-1.6-1.5C206.6,35.3,205.9,36,205.9,36.9z"/>
	<circle cx="218.6" cy="39.3" r="1.4"/>
	<circle cx="228.9" cy="42" r="1.2"/>
	<circle cx="238.2" cy="44.8" r="1"/>
	<path d="M245.8,47.8c0,0.4,0.4,0.8,0.8,0.8s0.8-0.4,0.8-0.8c0-0.4-0.4-0.8-0.8-0.8S245.8,47.4,245.8,47.8z"/>
	<circle cx="254" cy="51" r="0.6"/>
	<circle cx="260.4" cy="54.3" r="0.5"/>
	<path d="M265.8,57.4c-0.1,0-0.3,0.1-0.3,0.3s0.1,0.3,0.3,0.3s0.3-0.1,0.3-0.3S266,57.4,265.8,57.4z"/>
	<path d="M270.3,61.1c0-0.1-0.1-0.2-0.1-0.2c-0.1,0-0.2,0.1-0.2,0.2s0.1,0.2,0.2,0.2C270.2,61.3,270.3,61.2,270.3,61.1z"/>
	<path d="M273.5,64.6C273.4,64.6,273.4,64.6,273.5,64.6c0,0.1,0,0.1,0,0.1C273.5,64.7,273.5,64.7,273.5,64.6
		C273.5,64.6,273.5,64.6,273.5,64.6z"/>
	<path d="M5.6,70C5.6,70,5.6,70.1,5.6,70C5.6,70.1,5.6,70.1,5.6,70C5.6,70.1,5.6,70.1,5.6,70C5.6,70.1,5.6,70,5.6,70z"/>
	<circle cx="9.8" cy="67" r="0.1"/>
	<path d="M15,63.7c-0.1,0-0.3,0.1-0.3,0.3s0.1,0.3,0.3,0.3s0.3-0.1,0.3-0.3S15.1,63.7,15,63.7z"/>
	<circle cx="21.2" cy="60.9" r="0.5"/>
	<circle cx="28.5" cy="58" r="0.6"/>
	<path d="M36.8,54.4c-0.5,0-0.8,0.4-0.8,0.9c0,0.5,0.4,0.8,0.8,0.8c0.5,0,0.9-0.4,0.9-0.8C37.7,54.7,37.3,54.4,36.8,54.4z"/>
	<path d="M46.2,51.5c-0.6,0-1,0.5-1,1.1c0,0.6,0.5,1,1,1c0.6,0,1.1-0.5,1.1-1C47.2,52,46.7,51.5,46.2,51.5z"/>
	<path d="M55.2,50c0,0.7,0.6,1.3,1.3,1.3s1.3-0.6,1.3-1.3s-0.6-1.3-1.3-1.3S55.2,49.3,55.2,50z"/>
	<circle cx="67.7" cy="47.7" r="1.5"/>
	<path d="M78,45.6c0,0.9,0.8,1.7,1.7,1.7s1.7-0.8,1.7-1.7c0-0.9-0.8-1.7-1.7-1.7S78,44.6,78,45.6z"/>
	<path d="M92.7,45.7c1,0,1.9-0.9,1.9-1.9c0-1-0.9-1.9-1.9-1.9c-1,0-1.9,0.9-1.9,1.9C90.8,44.9,91.6,45.7,92.7,45.7z"/>
	<path d="M104.2,42.4c0,1.1,0.9,2.1,2.1,2.1c1.1,0,2.1-0.9,2.1-2.1c0-1.1-0.9-2.1-2.1-2.1C105.1,40.3,104.2,41.3,104.2,42.4z"/>
	<path d="M120.3,43.7c1.2,0,2.2-1,2.2-2.2s-1-2.2-2.2-2.2s-2.2,1-2.2,2.2S119.1,43.7,120.3,43.7z"/>
	<path d="M132.5,41c0,1.2,1,2.3,2.3,2.3s2.3-1,2.3-2.3s-1-2.3-2.3-2.3S132.5,39.8,132.5,41z"/>
	<path d="M149.2,43.4c1.2,0,2.3-1,2.3-2.3s-1-2.3-2.3-2.3s-2.3,1-2.3,2.3S148,43.4,149.2,43.4z"/>
	<circle cx="163.6" cy="41.7" r="2.2"/>
	<path d="M175.4,42.8c0,1.2,1,2.2,2.2,2.2c1.2,0,2.2-1,2.2-2.2c0-1.2-1-2.2-2.2-2.2C176.3,40.6,175.4,41.6,175.4,42.8z"/>
	<path d="M188.9,44.3c0,1.1,0.9,2,2,2c1.1,0,2-0.9,2-2c0-1.1-0.9-2-2-2C189.8,42.3,188.9,43.2,188.9,44.3z"/>
	<circle cx="203.6" cy="46.2" r="1.9"/>
	<circle cx="215.5" cy="48.3" r="1.7"/>
	<path d="M226.4,49.2c-0.8,0-1.4,0.7-1.4,1.5s0.6,1.5,1.4,1.5c0.8,0,1.5-0.7,1.5-1.5S227.2,49.2,226.4,49.2z"/>
	<path d="M235.2,53.3c0,0.7,0.5,1.2,1.2,1.2s1.2-0.5,1.2-1.2c0-0.7-0.6-1.2-1.2-1.2S235.2,52.6,235.2,53.3z"/>
	<circle cx="245.5" cy="56" r="1"/>
	<circle cx="253.5" cy="58.8" r="0.8"/>
	<circle cx="260.5" cy="61.8" r="0.6"/>
	<path d="M266.5,64.4c-0.2,0-0.4,0.2-0.4,0.4c0,0.2,0.2,0.4,0.4,0.4c0.2,0,0.4-0.2,0.4-0.4C266.9,64.5,266.7,64.4,266.5,64.4z"/>
	<circle cx="271.4" cy="67.8" r="0.2"/>
	<path d="M275.4,71c0-0.1,0-0.1-0.1-0.1s-0.1,0-0.1,0.1S275.2,71.1,275.4,71C275.3,71.1,275.4,71,275.4,71z"/>
	<path d="M278.1,74.1C278.1,74.1,278.1,74.1,278.1,74.1C278.1,74.2,278.1,74.2,278.1,74.1C278.1,74.2,278.1,74.2,278.1,74.1
		C278.1,74.1,278.1,74.1,278.1,74.1z"/>
	<path d="M4.6,77.6C4.6,77.6,4.6,77.6,4.6,77.6c0.1,0.1,0.2,0,0.2,0S4.7,77.5,4.6,77.6C4.6,77.5,4.6,77.5,4.6,77.6z"/>
	<circle cx="9.4" cy="74.9" r="0.2"/>
	<path d="M14.8,72.2c0,0.2,0.2,0.4,0.4,0.4c0.2,0,0.4-0.2,0.4-0.4c0-0.2-0.2-0.4-0.4-0.4S14.8,72,14.8,72.2z"/>
	<circle cx="22" cy="69.6" r="0.6"/>
	<path d="M29.9,66.3c-0.4,0-0.8,0.4-0.8,0.8s0.3,0.8,0.8,0.8c0.4,0,0.8-0.4,0.8-0.8S30.3,66.3,29.9,66.3z"/>
	<path d="M38.8,65.6c0.6,0,1-0.5,1-1s-0.5-1-1-1s-1,0.5-1,1S38.3,65.6,38.8,65.6z"/>
	<path d="M47.5,62.2c0,0.7,0.6,1.3,1.3,1.3s1.3-0.6,1.3-1.3S49.5,61,48.8,61S47.5,61.5,47.5,62.2z"/>
	<path d="M58.2,60c0,0.8,0.7,1.5,1.5,1.5c0.8,0,1.5-0.7,1.5-1.5c0-0.8-0.7-1.5-1.5-1.5C58.9,58.5,58.2,59.2,58.2,60z"/>
	<path d="M69.8,58c0,1,0.8,1.8,1.8,1.8c1,0,1.8-0.8,1.8-1.8c0-1-0.8-1.8-1.8-1.8C70.6,56.2,69.8,57,69.8,58z"/>
	<circle cx="84.4" cy="56.1" r="2"/>
	<circle cx="98" cy="54.6" r="2.2"/>
	<circle cx="112.3" cy="53.4" r="2.5"/>
	<path d="M124.4,52.7c0,1.4,1.2,2.6,2.6,2.6c1.4,0,2.6-1.2,2.6-2.6c0-1.4-1.2-2.6-2.6-2.6C125.6,50.1,124.4,51.3,124.4,52.7z"/>
	<path d="M142,55.2c1.5,0,2.7-1.2,2.7-2.7c0-1.5-1.2-2.7-2.7-2.7c-1.5,0-2.7,1.2-2.7,2.7C139.4,54,140.6,55.2,142,55.2z"/>
	<path d="M157,55.6c1.5,0,2.7-1.2,2.7-2.7s-1.2-2.7-2.7-2.7s-2.7,1.2-2.7,2.7S155.5,55.6,157,55.6z"/>
	<path d="M169,53.7c0,1.5,1.2,2.7,2.7,2.7s2.7-1.2,2.7-2.7c0-1.5-1.2-2.7-2.7-2.7S169,52.2,169,53.7z"/>
	<circle cx="185.8" cy="55" r="2.6"/>
	<path d="M199.2,59c1.3,0,2.4-1.1,2.4-2.4s-1.1-2.4-2.4-2.4s-2.4,1.1-2.4,2.4S197.9,59,199.2,59z"/>
	<path d="M211.7,60.7c1.2,0,2.2-1,2.2-2.2s-1-2.2-2.2-2.2s-2.2,1-2.2,2.2S210.5,60.7,211.7,60.7z"/>
	<path d="M221.4,60.6c0,1.1,0.9,2,2,2c1.1,0,2-0.9,2-2s-0.9-2-2-2C222.3,58.6,221.4,59.5,221.4,60.6z"/>
	<path d="M232.3,62.9c0,1,0.8,1.7,1.7,1.7s1.7-0.8,1.7-1.7s-0.8-1.7-1.7-1.7S232.3,61.9,232.3,62.9z"/>
	<path d="M242.2,65.3c0,0.8,0.7,1.5,1.5,1.5s1.5-0.7,1.5-1.5s-0.7-1.5-1.5-1.5S242.2,64.5,242.2,65.3z"/>
	<path d="M251.1,67.8c0,0.7,0.5,1.2,1.2,1.2c0.7,0,1.2-0.5,1.2-1.2s-0.5-1.2-1.2-1.2C251.6,66.5,251.1,67.1,251.1,67.8z"/>
	<path d="M258.9,70.3c0,0.5,0.4,1,1,1c0.5,0,1-0.4,1-1c0-0.5-0.4-1-1-1C259.4,69.4,258.9,69.8,258.9,70.3z"/>
	<path d="M266.5,72.2c-0.4,0-0.7,0.3-0.7,0.7c0,0.4,0.3,0.7,0.7,0.7c0.4,0,0.7-0.3,0.7-0.7C267.2,72.5,266.9,72.2,266.5,72.2z"/>
	<path d="M272,75.1c-0.3,0-0.5,0.2-0.5,0.5c0,0.3,0.2,0.5,0.5,0.5c0.3,0,0.5-0.2,0.5-0.5C272.5,75.3,272.2,75.1,272,75.1z"/>
	<circle cx="276.4" cy="78.3" r="0.3"/>
	<path d="M280,81.1c0-0.1-0.1-0.2-0.2-0.2s-0.2,0.1-0.2,0.2c0,0.1,0.1,0.2,0.2,0.2C279.9,81.2,280,81.2,280,81.1z"/>
	<path d="M282.1,83.8C282.1,83.8,282.1,83.8,282.1,83.8c0,0.1,0,0.1,0,0.1C282.1,83.9,282.2,83.9,282.1,83.8
		C282.2,83.8,282.1,83.8,282.1,83.8z"/>
	<circle cx="0.2" cy="88.3" r="0.1"/>
	<circle cx="4.4" cy="86.1" r="0.3"/>
	<path d="M10.2,83.8c0-0.3-0.2-0.5-0.5-0.5s-0.5,0.2-0.5,0.5s0.2,0.5,0.5,0.5S10.2,84.1,10.2,83.8z"/>
	<circle cx="16" cy="81.6" r="0.7"/>
	<path d="M23.5,78.5c-0.5,0-0.9,0.4-0.9,0.9s0.4,0.9,0.9,0.9c0.5,0,0.9-0.4,0.9-0.9S24,78.5,23.5,78.5z"/>
	<path d="M31.9,78.4c0.7,0,1.2-0.5,1.2-1.2c0-0.7-0.5-1.2-1.2-1.2s-1.2,0.5-1.2,1.2C30.7,77.9,31.3,78.4,31.9,78.4z"/>
	<path d="M40,75.1c0,0.8,0.7,1.5,1.5,1.5s1.5-0.7,1.5-1.5s-0.7-1.5-1.5-1.5S40,74.3,40,75.1z"/>
	<path d="M50.2,73.1c0,1,0.8,1.8,1.8,1.8s1.8-0.8,1.8-1.8c0-1-0.8-1.8-1.8-1.8S50.2,72.1,50.2,73.1z"/>
	<circle cx="63.6" cy="71.2" r="2"/>
	<path d="M73.8,69.4c0,1.3,1.1,2.4,2.3,2.4s2.4-1.1,2.4-2.4c0-1.3-1.1-2.3-2.4-2.3S73.8,68.1,73.8,69.4z"/>
	<path d="M87,67.8c0,1.4,1.2,2.6,2.6,2.6c1.4,0,2.6-1.2,2.6-2.6c0-1.4-1.2-2.6-2.6-2.6C88.2,65.2,87,66.4,87,67.8z"/>
	<path d="M101.1,66.6c0,1.6,1.3,2.8,2.8,2.8c1.6,0,2.8-1.3,2.8-2.8s-1.3-2.8-2.8-2.8C102.3,63.7,101.1,65,101.1,66.6z"/>
	<path d="M115.9,65.6c0,1.7,1.3,3,3,3c1.7,0,3-1.3,3-3s-1.3-3-3-3C117.2,62.6,115.9,64,115.9,65.6z"/>
	<circle cx="134.3" cy="65.2" r="3.1"/>
	<path d="M149.9,62.1c-1.8,0-3.2,1.4-3.2,3.2c0,1.8,1.4,3.2,3.2,3.2c1.8,0,3.2-1.4,3.2-3.2C153.1,63.5,151.7,62.1,149.9,62.1z"/>
	<circle cx="165.2" cy="65.8" r="3.1"/>
	<path d="M177.1,66.9c0,1.6,1.3,3,3,3c1.6,0,3-1.3,3-3c0-1.6-1.3-3-3-3C178.4,63.9,177.1,65.2,177.1,66.9z"/>
	<path d="M191.4,68.3c0,1.5,1.2,2.8,2.8,2.8c1.5,0,2.8-1.2,2.8-2.8c0-1.5-1.2-2.8-2.8-2.8C192.6,65.5,191.4,66.7,191.4,68.3z"/>
	<path d="M204.8,69.9c0,1.4,1.1,2.5,2.5,2.5s2.5-1.1,2.5-2.5s-1.1-2.6-2.5-2.6S204.8,68.5,204.8,69.9z"/>
	<path d="M217.4,71.7c0,1.3,1,2.3,2.3,2.3c1.3,0,2.3-1,2.3-2.3c0-1.3-1-2.3-2.3-2.3C218.4,69.4,217.4,70.4,217.4,71.7z"/>
	<circle cx="231" cy="73.6" r="2"/>
	<circle cx="241.2" cy="75.7" r="1.7"/>
	<path d="M249,77.8c0,0.8,0.6,1.4,1.4,1.4c0.8,0,1.4-0.6,1.4-1.4s-0.6-1.4-1.4-1.4C249.7,76.4,249,77,249,77.8z"/>
	<circle cx="258.6" cy="80" r="1.1"/>
	<circle cx="265.7" cy="82.2" r="0.9"/>
	<circle cx="271.8" cy="84.4" r="0.6"/>
	<path d="M276.4,86.7c0,0.2,0.2,0.4,0.4,0.4c0.2,0,0.4-0.2,0.4-0.4s-0.2-0.4-0.4-0.4C276.6,86.3,276.4,86.5,276.4,86.7z"/>
	<circle cx="280.8" cy="89" r="0.2"/>
	<path d="M283.7,91.3c0,0,0-0.1-0.1-0.1s-0.1,0-0.1,0.1s0,0.1,0.1,0.1C283.7,91.4,283.7,91.3,283.7,91.3z"/>
	<path d="M285.4,93.6C285.4,93.6,285.4,93.6,285.4,93.6C285.4,93.6,285.4,93.7,285.4,93.6C285.5,93.7,285.5,93.6,285.4,93.6
		C285.5,93.6,285.5,93.6,285.4,93.6z"/>
	<circle cx="0.1" cy="97.4" r="0.2"/>
	<path d="M4.5,95.5c0,0.2,0.2,0.4,0.3,0.4s0.4-0.2,0.4-0.4s-0.2-0.3-0.4-0.3S4.5,95.3,4.5,95.5z"/>
	<path d="M10.7,94.3c0.3,0,0.5-0.2,0.5-0.5s-0.2-0.5-0.5-0.5c-0.3,0-0.6,0.2-0.6,0.5S10.4,94.3,10.7,94.3z"/>
	<path d="M17.6,92.8c0.4,0,0.8-0.4,0.8-0.8s-0.4-0.8-0.8-0.8s-0.8,0.4-0.8,0.8S17.2,92.8,17.6,92.8z"/>
	<circle cx="25.6" cy="90.2" r="1.1"/>
	<path d="M33.3,88.4c0,0.8,0.6,1.3,1.4,1.3c0.7,0,1.3-0.6,1.3-1.3s-0.6-1.3-1.3-1.3S33.3,87.7,33.3,88.4z"/>
	<circle cx="44.7" cy="86.7" r="1.7"/>
	<circle cx="55.9" cy="85.1" r="2"/>
	<path d="M68.1,85.8c1.3,0,2.3-1,2.3-2.3c0-1.3-1-2.3-2.3-2.3c-1.3,0-2.3,1-2.3,2.3C65.7,84.8,66.8,85.8,68.1,85.8z"/>
	<circle cx="81.3" cy="82" r="2.7"/>
	<path d="M92.5,80.8c0,1.6,1.3,3,3,3c1.6,0,2.9-1.3,2.9-3c0-1.6-1.3-3-2.9-3C93.8,77.8,92.5,79.1,92.5,80.8z"/>
	<path d="M113.7,79.7c0-1.8-1.4-3.2-3.2-3.2c-1.8,0-3.2,1.4-3.2,3.2c0,1.8,1.4,3.2,3.2,3.2C112.2,82.9,113.7,81.5,113.7,79.7z"/>
	<circle cx="126.1" cy="79" r="3.4"/>
	<path d="M142.2,82.4c2,0,3.6-1.6,3.6-3.6c0-2-1.6-3.6-3.6-3.6s-3.6,1.6-3.6,3.6C138.6,80.8,140.2,82.4,142.2,82.4z"/>
	<circle cx="158.2" cy="79.2" r="3.6"/>
	<path d="M173.7,76.4c-2,0-3.6,1.6-3.6,3.6c0,2,1.6,3.6,3.6,3.6c2,0,3.6-1.6,3.6-3.6C177.3,78,175.7,76.4,173.7,76.4z"/>
	<path d="M185.1,81.1c0,1.9,1.5,3.4,3.4,3.4c1.9,0,3.4-1.5,3.4-3.4c0-1.9-1.5-3.4-3.4-3.4C186.6,77.7,185.1,79.2,185.1,81.1z"/>
	<path d="M199.3,82.5c0,1.8,1.4,3.2,3.2,3.2s3.2-1.4,3.2-3.2s-1.4-3.2-3.2-3.2S199.3,80.7,199.3,82.5z"/>
	<path d="M212.4,84c0,1.6,1.3,2.9,2.9,2.9c1.6,0,2.9-1.3,2.9-2.9c0-1.6-1.3-2.9-2.9-2.9C213.8,81.1,212.4,82.4,212.4,84z"/>
	<circle cx="227.2" cy="85.5" r="2.6"/>
	<circle cx="238.1" cy="87.2" r="2.2"/>
	<circle cx="247.9" cy="88.9" r="1.9"/>
	<path d="M255,90.7c0,0.9,0.7,1.6,1.6,1.6s1.6-0.7,1.6-1.6s-0.7-1.6-1.6-1.6S255,89.8,255,90.7z"/>
	<path d="M263,92.5c0,0.7,0.6,1.3,1.3,1.3c0.7,0,1.3-0.6,1.3-1.3c0-0.7-0.6-1.3-1.3-1.3C263.6,91.1,263,91.7,263,92.5z"/>
	<circle cx="270.9" cy="94.2" r="1"/>
	<circle cx="276.5" cy="96" r="0.8"/>
	<circle cx="281" cy="97.9" r="0.5"/>
	<circle cx="284.4" cy="99.7" r="0.3"/>
	<path d="M286.9,101.5c0-0.1-0.1-0.1-0.2-0.1c-0.1,0-0.1,0.1-0.1,0.1c0,0.1,0.1,0.2,0.1,0.2C286.8,101.7,286.9,101.6,286.9,101.5z"
		/>
	<circle cx="288" cy="103.4" r="0"/>
	<path d="M0.8,106.9c-0.2,0-0.4,0.2-0.4,0.4c0,0.2,0.2,0.4,0.4,0.4c0.2,0,0.4-0.2,0.4-0.4C1.2,107,1,106.9,0.8,106.9z"/>
	<path d="M6.7,105.9c0-0.3-0.3-0.6-0.6-0.6c-0.3,0-0.6,0.3-0.6,0.6c0,0.3,0.3,0.6,0.6,0.6C6.4,106.6,6.7,106.3,6.7,105.9z"/>
	<path d="M13.4,104.6c0-0.5-0.4-0.9-0.9-0.9s-0.9,0.4-0.9,0.9s0.4,0.9,0.9,0.9S13.4,105.1,13.4,104.6z"/>
	<circle cx="20" cy="103.3" r="1.2"/>
	<circle cx="28.5" cy="102" r="1.5"/>
	<path d="M36.2,100.7c0,1,0.8,1.8,1.8,1.8c1,0,1.8-0.8,1.8-1.8s-0.8-1.8-1.8-1.8S36.2,99.7,36.2,100.7z"/>
	<path d="M46.5,99.4c0,1.2,1,2.2,2.2,2.2c1.2,0,2.2-1,2.2-2.2s-1-2.2-2.2-2.2C47.5,97.2,46.5,98.2,46.5,99.4z"/>
	<path d="M60.4,95.6c-1.4,0-2.5,1.1-2.5,2.6s1.1,2.5,2.5,2.5s2.5-1.1,2.5-2.5S61.8,95.6,60.4,95.6z"/>
	<path d="M70.3,97c0,1.6,1.3,2.9,2.9,2.9c1.6,0,2.9-1.3,2.9-2.9s-1.3-2.9-2.9-2.9C71.6,94.1,70.3,95.4,70.3,97z"/>
	<path d="M83.7,95.9c0,1.8,1.5,3.3,3.3,3.3s3.3-1.5,3.3-3.3s-1.5-3.3-3.3-3.3S83.7,94,83.7,95.9z"/>
	<circle cx="101.8" cy="94.9" r="3.6"/>
	<path d="M117.5,90.1c-2.2,0-3.9,1.8-3.9,3.9s1.8,3.9,3.9,3.9c2.2,0,3.9-1.8,3.9-3.9S119.7,90.1,117.5,90.1z"/>
	<path d="M129.9,93.6c0,2.3,1.8,4.1,4.1,4.1s4.1-1.8,4.1-4.1s-1.8-4.1-4.1-4.1S129.9,91.4,129.9,93.6z"/>
	<path d="M146.4,93.7c0,2.3,1.9,4.1,4.1,4.1s4.1-1.8,4.1-4.1c0-2.3-1.9-4.1-4.1-4.1S146.4,91.4,146.4,93.7z"/>
	<circle cx="166.8" cy="94.3" r="4.1"/>
	<path d="M182.3,91.3c-2.1,0-3.8,1.7-3.8,3.8s1.7,3.8,3.8,3.8s3.8-1.7,3.8-3.8S184.4,91.3,182.3,91.3z"/>
	<path d="M196.8,92.6c-2,0-3.5,1.6-3.5,3.5s1.6,3.5,3.5,3.5c2,0,3.5-1.6,3.5-3.5S198.8,92.6,196.8,92.6z"/>
	<path d="M210.4,94.1c-1.8,0-3.2,1.4-3.2,3.2c0,1.8,1.4,3.2,3.2,3.2c1.8,0,3.2-1.4,3.2-3.2C213.6,95.5,212.1,94.1,210.4,94.1z"/>
	<path d="M220,98.5c0,1.6,1.3,2.8,2.9,2.8c1.6,0,2.8-1.3,2.8-2.8s-1.3-2.8-2.8-2.8C221.3,95.7,220,97,220,98.5z"/>
	<path d="M231.8,99.8c0,1.4,1.1,2.5,2.5,2.5s2.5-1.1,2.5-2.5s-1.1-2.5-2.5-2.5S231.8,98.4,231.8,99.8z"/>
	<path d="M244.6,99c-1.2,0-2.1,0.9-2.1,2.1s0.9,2.1,2.1,2.1s2.1-0.9,2.1-2.1S245.8,99,244.6,99z"/>
	<circle cx="253.9" cy="102.4" r="1.8"/>
	<path d="M260.7,103.7c0,0.8,0.6,1.4,1.4,1.4c0.8,0,1.4-0.6,1.4-1.4c0-0.8-0.6-1.4-1.4-1.4C261.4,102.2,260.7,102.9,260.7,103.7z"/>
	<circle cx="269.3" cy="105" r="1.1"/>
	<circle cx="275.4" cy="106.3" r="0.8"/>
	<circle cx="280.4" cy="107.6" r="0.6"/>
	<path d="M284.4,109.3c0.2,0,0.4-0.2,0.4-0.4s-0.2-0.4-0.4-0.4s-0.4,0.2-0.4,0.4S284.2,109.3,284.4,109.3z"/>
	<path d="M287.3,110.1c-0.1,0-0.2,0.1-0.2,0.2c0,0.1,0.1,0.2,0.2,0.2c0.1,0,0.2-0.1,0.2-0.2C287.5,110.2,287.4,110.1,287.3,110.1z"
		/>
	<path d="M2.2,117.5c-0.2,0-0.4,0.2-0.4,0.4s0.2,0.5,0.4,0.5s0.5-0.2,0.5-0.5S2.5,117.5,2.2,117.5z"/>
	<path d="M8.8,117.2c0-0.4-0.3-0.7-0.7-0.7c-0.4,0-0.7,0.3-0.7,0.7c0,0.4,0.3,0.7,0.7,0.7C8.5,117.9,8.8,117.5,8.8,117.2z"/>
	<path d="M14,116.4c0,0.5,0.4,1,1,1c0.5,0,1-0.4,1-1c0-0.5-0.4-1-1-1C14.5,115.4,14,115.8,14,116.4z"/>
	<path d="M23,114.3c-0.7,0-1.3,0.6-1.3,1.3s0.6,1.3,1.3,1.3s1.3-0.6,1.3-1.3S23.7,114.3,23,114.3z"/>
	<path d="M32.1,116.4c0.9,0,1.6-0.7,1.6-1.6s-0.7-1.6-1.6-1.6c-0.9,0-1.6,0.7-1.6,1.6S31.2,116.4,32.1,116.4z"/>
	<path d="M40.2,113.9c0,1.1,0.9,2,2,2c1.1,0,2-0.9,2-2s-0.9-2-2-2C41.1,112,40.2,112.9,40.2,113.9z"/>
	<path d="M55.8,113.1c0-1.3-1.1-2.4-2.4-2.4s-2.3,1.1-2.3,2.4c0,1.3,1.1,2.3,2.3,2.3S55.8,114.4,55.8,113.1z"/>
	<circle cx="65.7" cy="112.3" r="2.8"/>
	<path d="M79,108.4c-1.8,0-3.2,1.4-3.2,3.2s1.4,3.2,3.2,3.2s3.2-1.4,3.2-3.2S80.8,108.4,79,108.4z"/>
	<circle cx="93.4" cy="110.8" r="3.6"/>
	<path d="M104.9,110.2c0,2.2,1.8,4,4,4s4-1.8,4-4s-1.8-4-4-4S104.9,107.9,104.9,110.2z"/>
	<path d="M120.9,109.6c0,2.4,1.9,4.3,4.3,4.3c2.4,0,4.3-1.9,4.3-4.3c0-2.4-1.9-4.3-4.3-4.3C122.9,105.3,120.9,107.2,120.9,109.6z"/>
	<ellipse transform="matrix(0.3827 -0.9239 0.9239 0.3827 -13.2252 199.0671)" cx="142.4" cy="109.4" rx="4.4" ry="4.4"/>
	<ellipse transform="matrix(0.9732 -0.2298 0.2298 0.9732 -20.9493 39.5348)" cx="159.3" cy="109.7" rx="4.4" ry="4.4"/>
	<ellipse transform="matrix(0.3827 -0.9239 0.9239 0.3827 6.3765 230.2031)" cx="175.5" cy="110.3" rx="4.4" ry="4.4"/>
	<path d="M186.3,111c0,2.4,1.9,4.3,4.3,4.3c2.4,0,4.3-1.9,4.3-4.3c0-2.4-1.9-4.3-4.3-4.3C188.2,106.8,186.3,108.7,186.3,111z"/>
	<path d="M200.8,111.8c0,2.2,1.7,3.9,3.9,3.9c2.1,0,3.9-1.7,3.9-3.9c0-2.1-1.7-3.9-3.9-3.9C202.5,107.9,200.8,109.6,200.8,111.8z"/>
	<path d="M214.2,112.6c0,1.9,1.6,3.5,3.5,3.5s3.5-1.6,3.5-3.5s-1.6-3.5-3.5-3.5C215.8,109.1,214.2,110.6,214.2,112.6z"/>
	<circle cx="229.7" cy="113.4" r="3.1"/>
	<path d="M240.6,111.5c-1.5,0-2.7,1.2-2.7,2.7c0,1.5,1.2,2.7,2.7,2.7c1.5,0,2.7-1.2,2.7-2.7C243.3,112.7,242.1,111.5,240.6,111.5z"
		/>
	<path d="M250.5,117.2c1.2,0,2.3-1,2.3-2.3s-1-2.3-2.3-2.3s-2.3,1-2.3,2.3S249.2,117.2,250.5,117.2z"/>
	<path d="M259.2,117.7c1,0,1.9-0.9,1.9-1.9c0-1-0.9-1.9-1.9-1.9c-1,0-1.9,0.9-1.9,1.9C257.3,116.8,258.2,117.7,259.2,117.7z"/>
	<path d="M266.9,115.1c-0.8,0-1.5,0.7-1.5,1.5c0,0.8,0.7,1.5,1.5,1.5c0.8,0,1.5-0.7,1.5-1.5C268.4,115.7,267.8,115.1,266.9,115.1z"
		/>
	<path d="M272.4,117.4c0,0.7,0.5,1.2,1.2,1.2c0.7,0,1.2-0.5,1.2-1.2c0-0.7-0.5-1.2-1.2-1.2C272.9,116.2,272.4,116.7,272.4,117.4z"/>
	<path d="M278.2,118.2c0,0.5,0.4,0.9,0.9,0.9s0.9-0.4,0.9-0.9s-0.4-0.9-0.9-0.9S278.2,117.7,278.2,118.2z"/>
	<path d="M284.3,119c0-0.4-0.3-0.7-0.7-0.7s-0.6,0.3-0.6,0.7c0,0.4,0.3,0.6,0.6,0.6S284.3,119.4,284.3,119z"/>
	<path d="M287,120.2c0.2,0,0.4-0.2,0.4-0.4c0-0.2-0.2-0.4-0.4-0.4c-0.2,0-0.4,0.2-0.4,0.4C286.7,120,286.8,120.2,287,120.2z"/>
	<circle cx="4.5" cy="129.4" r="0.8"/>
	<path d="M10.9,130.2c0.6,0,1-0.5,1-1s-0.5-1-1-1s-1,0.5-1,1S10.3,130.2,10.9,130.2z"/>
	<path d="M18.3,130.2c0.7,0,1.3-0.6,1.3-1.4s-0.6-1.3-1.3-1.3s-1.4,0.6-1.4,1.3S17.6,130.2,18.3,130.2z"/>
	<circle cx="26.9" cy="128.6" r="1.7"/>
	<path d="M34.4,128.3c0,1.1,0.9,2.1,2.1,2.1c1.1,0,2.1-0.9,2.1-2.1c0-1.1-0.9-2.1-2.1-2.1C35.3,126.2,34.4,127.1,34.4,128.3z"/>
	<path d="M47.2,125.5c-1.4,0-2.5,1.1-2.5,2.5s1.1,2.5,2.5,2.5s2.5-1.1,2.5-2.5S48.5,125.5,47.2,125.5z"/>
	<path d="M56,127.7c0,1.6,1.3,2.9,2.9,2.9c1.6,0,2.9-1.3,2.9-2.9c0-1.6-1.3-2.9-2.9-2.9C57.3,124.8,56,126.1,56,127.7z"/>
	<path d="M71.7,130.8c1.8,0,3.3-1.5,3.3-3.3c0-1.8-1.5-3.3-3.3-3.3c-1.8,0-3.3,1.5-3.3,3.3C68.4,129.3,69.9,130.8,71.7,130.8z"/>
	<path d="M85.6,123.4c-2.1,0-3.8,1.7-3.8,3.8c0,2.1,1.7,3.8,3.8,3.8c2.1,0,3.8-1.7,3.8-3.8C89.4,125.1,87.7,123.4,85.6,123.4z"/>
	<path d="M96.2,126.9c0,2.4,1.9,4.3,4.3,4.3s4.3-1.9,4.3-4.3c0-2.4-1.9-4.3-4.3-4.3S96.2,124.5,96.2,126.9z"/>
	<ellipse transform="matrix(0.9732 -0.2298 0.2298 0.9732 -25.965 30.1568)" cx="116.5" cy="126.6" rx="4.4" ry="4.4"/>
	<ellipse transform="matrix(0.7071 -0.7071 0.7071 0.7071 -50.2153 131.4695)" cx="133.6" cy="126.3" rx="4.4" ry="4.4"/>
	<circle cx="151.2" cy="126.4" r="4.4"/>
	<circle cx="168" cy="126.7" r="4.4"/>
	<circle cx="183.7" cy="126.9" r="4.4"/>
	<path d="M194.1,127.2c0,2.3,1.9,4.2,4.2,4.2s4.2-1.9,4.2-4.2c0-2.3-1.9-4.2-4.2-4.2S194.1,124.9,194.1,127.2z"/>
	<circle cx="211.9" cy="127.5" r="3.7"/>
	<path d="M221.2,127.8c0,1.8,1.4,3.2,3.2,3.2c1.8,0,3.2-1.4,3.2-3.2c0-1.8-1.5-3.2-3.2-3.2C222.6,124.5,221.2,126,221.2,127.8z"/>
	<path d="M235.8,125.3c-1.5,0-2.8,1.2-2.8,2.8c0,1.5,1.2,2.8,2.8,2.8c1.5,0,2.8-1.2,2.8-2.8C238.6,126.5,237.4,125.3,235.8,125.3z"
		/>
	<circle cx="246.2" cy="128.4" r="2.4"/>
	<path d="M255.5,126.7c-1.1,0-2,0.9-2,2c0,1.1,0.9,2,2,2s2-0.9,2-2C257.5,127.6,256.6,126.7,255.5,126.7z"/>
	<circle cx="263.8" cy="128.9" r="1.6"/>
	<path d="M270.9,128c-0.7,0-1.3,0.6-1.3,1.3c0,0.7,0.6,1.3,1.3,1.3s1.3-0.6,1.3-1.3C272.2,128.5,271.6,128,270.9,128z"/>
	<circle cx="277" cy="129.5" r="1"/>
	<path d="M281.4,129.8c0,0.4,0.3,0.7,0.7,0.7s0.7-0.3,0.7-0.7s-0.3-0.7-0.7-0.7C281.7,129.1,281.4,129.4,281.4,129.8z"/>
	<circle cx="286" cy="130.1" r="0.5"/>
	<path d="M1.7,141.7c0.3,0,0.5-0.2,0.5-0.5c0-0.3-0.2-0.5-0.5-0.5c-0.3,0-0.5,0.2-0.5,0.5C1.1,141.5,1.4,141.7,1.7,141.7z"/>
	<path d="M7.5,140.7c-0.4,0-0.8,0.4-0.8,0.8s0.3,0.8,0.8,0.8c0.4,0,0.8-0.4,0.8-0.8S7.9,140.7,7.5,140.7z"/>
	<path d="M15.5,141.7c0-0.6-0.5-1-1-1s-1,0.5-1,1c0,0.6,0.5,1.1,1,1.1S15.5,142.3,15.5,141.7z"/>
	<circle cx="22.5" cy="142" r="1.4"/>
	<path d="M33.2,142.2c0-0.9-0.8-1.7-1.7-1.7s-1.7,0.8-1.7,1.7c0,1,0.8,1.7,1.7,1.7S33.2,143.2,33.2,142.2z"/>
	<path d="M41.7,144.6c1.2,0,2.1-1,2.1-2.1c0-1.2-1-2.1-2.1-2.1c-1.2,0-2.1,0.9-2.1,2.1C39.5,143.6,40.5,144.6,41.7,144.6z"/>
	<path d="M50.3,142.7c0,1.4,1.1,2.5,2.5,2.5c1.4,0,2.5-1.1,2.5-2.5c0-1.4-1.1-2.5-2.5-2.5C51.5,140.2,50.3,141.3,50.3,142.7z"/>
	<path d="M65.1,145.9c1.6,0,3-1.3,3-3c0-1.6-1.3-3-3-3s-3,1.3-3,3C62.2,144.6,63.5,145.9,65.1,145.9z"/>
	<circle cx="78.5" cy="143.2" r="3.4"/>
	<path d="M92.9,147.4c2.2,0,3.9-1.8,3.9-3.9c0-2.2-1.8-3.9-3.9-3.9s-3.9,1.8-3.9,3.9C89,145.6,90.7,147.4,92.9,147.4z"/>
	<circle cx="108.4" cy="143.7" r="4.4"/>
	<ellipse transform="matrix(0.9871 -0.1602 0.1602 0.9871 -21.4405 21.8667)" cx="124.9" cy="143.9" rx="4.4" ry="4.4"/>
	<circle cx="142.4" cy="144" r="4.4"/>
	<circle cx="159.7" cy="143.9" r="4.4"/>
	<circle cx="176" cy="143.6" r="4.4"/>
	<circle cx="191.1" cy="143.4" r="4.4"/>
	<circle cx="205.2" cy="143.1" r="4.3"/>
	<circle cx="218.3" cy="142.9" r="3.8"/>
	<circle cx="230.3" cy="142.6" r="3.3"/>
	<circle cx="241.2" cy="142.4" r="2.9"/>
	<path d="M253.5,142.1c0-1.4-1.1-2.5-2.5-2.5s-2.5,1.1-2.5,2.5c0,1.4,1.1,2.4,2.5,2.4C252.4,144.6,253.5,143.5,253.5,142.1z"/>
	<path d="M259.8,143.9c1.1,0,2-0.9,2-2c0-1.1-0.9-2-2-2s-2,0.9-2,2C257.8,143,258.7,143.9,259.8,143.9z"/>
	<path d="M265.8,141.7c0,0.9,0.7,1.6,1.6,1.6c0.9,0,1.7-0.7,1.7-1.6c0-0.9-0.7-1.7-1.7-1.7C266.6,140,265.8,140.7,265.8,141.7z"/>
	<path d="M274.1,140.1c-0.7,0-1.3,0.6-1.3,1.3c0,0.7,0.6,1.3,1.3,1.3c0.7,0,1.3-0.6,1.3-1.3C275.4,140.7,274.9,140.1,274.1,140.1z"
		/>
	<path d="M280.7,141.2c0-0.5-0.4-1-1-1c-0.5,0-1,0.4-1,1c0,0.5,0.4,1,1,1C280.2,142.1,280.7,141.7,280.7,141.2z"/>
	<path d="M284.2,141.6c0.4,0,0.7-0.3,0.7-0.7c0-0.4-0.3-0.7-0.7-0.7s-0.7,0.3-0.7,0.7C283.5,141.3,283.8,141.6,284.2,141.6z"/>
	<path d="M288.1,140.7c0-0.3-0.2-0.5-0.5-0.5s-0.5,0.2-0.5,0.5c0,0.3,0.2,0.5,0.5,0.5S288.1,140.9,288.1,140.7z"/>
	<path d="M0.2,152.4c0-0.3-0.2-0.5-0.5-0.5s-0.5,0.2-0.5,0.5c0,0.3,0.2,0.5,0.5,0.5C-0.1,153,0.2,152.7,0.2,152.4z"/>
	<path d="M5,154c0.4,0,0.8-0.3,0.8-0.8c0-0.4-0.3-0.8-0.8-0.8c-0.4,0-0.8,0.3-0.8,0.8C4.2,153.6,4.5,154,5,154z"/>
	<circle cx="11.4" cy="154" r="1"/>
	<circle cx="18.8" cy="154.8" r="1.4"/>
	<path d="M25.6,155.5c0,1,0.8,1.7,1.7,1.7s1.7-0.8,1.7-1.7c0-0.9-0.8-1.7-1.7-1.7S25.6,154.6,25.6,155.5z"/>
	<path d="M39.1,156.3c0-1.2-0.9-2.1-2.1-2.1c-1.2,0-2.1,0.9-2.1,2.1s0.9,2.1,2.1,2.1C38.1,158.4,39.1,157.5,39.1,156.3z"/>
	<path d="M45.1,157.1c0,1.4,1.1,2.5,2.5,2.5s2.5-1.1,2.5-2.5s-1.1-2.5-2.5-2.5S45.1,155.7,45.1,157.1z"/>
	<path d="M59.4,154.8c-1.6,0-3,1.3-3,3c0,1.6,1.3,3,3,3s3-1.3,3-3C62.3,156.2,61,154.8,59.4,154.8z"/>
	<circle cx="72.2" cy="158.6" r="3.4"/>
	<path d="M86,163.2c2.2,0,3.9-1.8,3.9-3.9s-1.8-3.9-3.9-3.9c-2.2,0-3.9,1.8-3.9,3.9S83.9,163.2,86,163.2z"/>
	<circle cx="101" cy="160" r="4.4"/>
	<circle cx="116.9" cy="160.6" r="4.4"/>
	<circle cx="133.8" cy="161" r="4.4"/>
	<ellipse transform="matrix(0.3827 -0.9239 0.9239 0.3827 -55.5053 238.7703)" cx="150.9" cy="160.9" rx="4.4" ry="4.4"/>
	<ellipse transform="matrix(0.7071 -0.7071 0.7071 0.7071 -64.3839 165.4634)" cx="167.5" cy="160.4" rx="4.4" ry="4.4"/>
	<circle cx="183.2" cy="159.8" r="4.4"/>
	<circle cx="197.8" cy="159.1" r="4.3"/>
	<circle cx="211.4" cy="158.4" r="3.8"/>
	<circle cx="223.9" cy="157.6" r="3.3"/>
	<circle cx="235.4" cy="156.8" r="2.9"/>
	<path d="M248.2,156.1c0-1.4-1.1-2.5-2.4-2.5c-1.4,0-2.5,1.1-2.5,2.5c0,1.4,1.1,2.4,2.5,2.4C247.1,158.5,248.2,157.4,248.2,156.1z"
		/>
	<path d="M255,157.3c1.1,0,2-0.9,2-2s-0.9-2-2-2c-1.1,0-2,0.9-2,2S253.9,157.3,255,157.3z"/>
	<path d="M263.3,156.2c0.9,0,1.7-0.7,1.7-1.7c0-0.9-0.7-1.6-1.7-1.6c-0.9,0-1.6,0.7-1.6,1.6C261.6,155.5,262.4,156.2,263.3,156.2z"
		/>
	<path d="M271.7,153.8c0-0.7-0.6-1.3-1.3-1.3c-0.7,0-1.3,0.6-1.3,1.3c0,0.7,0.6,1.3,1.3,1.3C271.2,155.1,271.7,154.5,271.7,153.8z"
		/>
	<path d="M277.5,153c0-0.5-0.4-1-1-1c-0.5,0-1,0.4-1,1c0,0.5,0.4,1,1,1C277.1,154,277.5,153.5,277.5,153z"/>
	<path d="M282.3,152.2c0-0.4-0.3-0.7-0.7-0.7s-0.7,0.3-0.7,0.7c0,0.4,0.3,0.7,0.7,0.7S282.3,152.6,282.3,152.2z"/>
	<path d="M286,151.4c0-0.3-0.2-0.5-0.5-0.5s-0.5,0.2-0.5,0.5s0.2,0.5,0.5,0.5S286,151.7,286,151.4z"/>
	<circle cx="3.2" cy="164.2" r="0.5"/>
	<circle cx="9.1" cy="165.5" r="0.8"/>
	<circle cx="16" cy="166.8" r="1"/>
	<path d="M24,169.4c0.7,0,1.4-0.6,1.4-1.3s-0.6-1.4-1.4-1.4s-1.3,0.6-1.3,1.4S23.2,169.4,24,169.4z"/>
	<circle cx="33" cy="169.3" r="1.7"/>
	<circle cx="43.2" cy="170.6" r="2.1"/>
	<path d="M54.4,174.3c1.4,0,2.5-1.1,2.5-2.5s-1.1-2.5-2.5-2.5s-2.5,1.1-2.5,2.5S53,174.3,54.4,174.3z"/>
	<path d="M66.6,175.9c1.6,0,2.9-1.3,2.9-2.9c0-1.6-1.3-2.9-2.9-2.9c-1.6,0-2.9,1.3-2.9,2.9C63.7,174.6,65,175.9,66.6,175.9z"/>
	<path d="M83.2,174.1c0-1.8-1.5-3.3-3.3-3.3c-1.8,0-3.3,1.5-3.3,3.3c0,1.8,1.5,3.3,3.3,3.3C81.8,177.5,83.2,176,83.2,174.1z"/>
	<path d="M98,175.2c0-2.1-1.7-3.8-3.8-3.8c-2.1,0-3.8,1.7-3.8,3.8c0,2.1,1.7,3.8,3.8,3.8C96.3,179,98,177.3,98,175.2z"/>
	<path d="M109.5,180.4c2.4,0,4.3-1.9,4.3-4.3s-1.9-4.3-4.3-4.3c-2.4,0-4.3,1.9-4.3,4.3S107.2,180.4,109.5,180.4z"/>
	<ellipse transform="matrix(0.3827 -0.9239 0.9239 0.3827 -85.7052 225.1929)" cx="125.7" cy="176.7" rx="4.4" ry="4.4"/>
	<ellipse transform="matrix(0.3827 -0.9239 0.9239 0.3827 -75.621 240.665)" cx="142.3" cy="176.9" rx="4.4" ry="4.4"/>
	<circle cx="158.8" cy="176.6" r="4.4"/>
	<ellipse transform="matrix(0.9871 -0.1602 0.1602 0.9871 -25.915 30.2595)" cx="174.7" cy="175.9" rx="4.4" ry="4.4"/>
	<circle cx="189.8" cy="174.9" r="4.4"/>
	<circle cx="203.8" cy="173.8" r="4.2"/>
	<circle cx="216.8" cy="172.7" r="3.7"/>
	<path d="M232,171.5c0-1.8-1.5-3.2-3.2-3.2c-1.8,0-3.2,1.5-3.2,3.2c0,1.8,1.5,3.2,3.2,3.2C230.6,174.7,232,173.2,232,171.5z"/>
	<path d="M242.5,170.2c0-1.5-1.2-2.8-2.8-2.8c-1.5,0-2.8,1.2-2.8,2.8s1.2,2.8,2.8,2.8C241.2,173,242.5,171.8,242.5,170.2z"/>
	<circle cx="249.5" cy="169" r="2.4"/>
	<path d="M260.2,167.7c0-1.1-0.9-2-2-2c-1.1,0-2,0.9-2,2c0,1.1,0.9,2,2,2C259.3,169.7,260.2,168.8,260.2,167.7z"/>
	<circle cx="266" cy="166.4" r="1.6"/>
	<path d="M273.8,165.1c0-0.7-0.6-1.3-1.3-1.3c-0.7,0-1.3,0.6-1.3,1.3c0,0.7,0.6,1.3,1.3,1.3S273.8,165.8,273.8,165.1z"/>
	<circle cx="278.1" cy="163.9" r="1"/>
	<path d="M282.6,163.2c0.4,0,0.7-0.3,0.7-0.7s-0.3-0.7-0.7-0.7c-0.4,0-0.7,0.3-0.7,0.7S282.3,163.2,282.6,163.2z"/>
	<path d="M286.5,161.3c0-0.2-0.2-0.5-0.5-0.5s-0.5,0.2-0.5,0.5s0.2,0.4,0.5,0.4S286.5,161.5,286.5,161.3z"/>
	<path d="M2.2,174c-0.2,0-0.5,0.2-0.5,0.4s0.2,0.5,0.5,0.5s0.4-0.2,0.4-0.5S2.5,174,2.2,174z"/>
	<path d="M8.2,176.2c0-0.4-0.3-0.7-0.7-0.7c-0.4,0-0.7,0.3-0.7,0.7s0.3,0.7,0.7,0.7C7.9,176.9,8.2,176.6,8.2,176.2z"/>
	<path d="M14.9,178c0-0.5-0.4-1-1-1c-0.5,0-1,0.4-1,1c0,0.5,0.4,1,1,1C14.5,178.9,14.9,178.5,14.9,178z"/>
	<path d="M21.4,181c0.7,0,1.3-0.6,1.3-1.3c0-0.7-0.6-1.3-1.3-1.3s-1.3,0.6-1.3,1.3C20.1,180.4,20.7,181,21.4,181z"/>
	<circle cx="29.9" cy="181.4" r="1.6"/>
	<path d="M39.4,185.1c1.1,0,2-0.9,2-2c0-1.1-0.9-2-2-2s-2,0.9-2,2C37.5,184.2,38.3,185.1,39.4,185.1z"/>
	<path d="M50.1,187.1c1.3,0,2.3-1.1,2.3-2.3c0-1.3-1.1-2.4-2.3-2.4s-2.3,1.1-2.3,2.4C47.7,186.1,48.8,187.1,50.1,187.1z"/>
	<path d="M61.7,189.1c1.5,0,2.8-1.2,2.8-2.7s-1.2-2.8-2.8-2.8c-1.5,0-2.8,1.2-2.8,2.8S60.2,189.1,61.7,189.1z"/>
	<circle cx="74.4" cy="187.9" r="3.2"/>
	<circle cx="88.1" cy="189.2" r="3.6"/>
	<circle cx="102.8" cy="190.4" r="4"/>
	<path d="M122.5,191.3c0-2.4-1.9-4.3-4.3-4.3s-4.3,1.9-4.3,4.3s1.9,4.3,4.3,4.3S122.5,193.7,122.5,191.3z"/>
	<circle cx="134.1" cy="191.7" r="4.4"/>
	<circle cx="150.3" cy="191.7" r="4.4"/>
	<ellipse transform="matrix(0.7071 -0.7071 0.7071 0.7071 -86.4615 173.4235)" cx="166.1" cy="191.1" rx="4.4" ry="4.4"/>
	<circle cx="181.3" cy="190.1" r="4.3"/>
	<circle cx="195.7" cy="188.9" r="3.9"/>
	<path d="M209.1,191c1.9,0,3.5-1.6,3.5-3.5c0-1.9-1.6-3.5-3.5-3.5c-1.9,0-3.5,1.6-3.5,3.5C205.6,189.4,207.2,191,209.1,191z"/>
	<circle cx="221.5" cy="185.9" r="3.1"/>
	<path d="M232.9,187c1.5,0,2.7-1.2,2.7-2.7c0-1.5-1.2-2.7-2.7-2.7c-1.5,0-2.7,1.2-2.7,2.7C230.2,185.8,231.4,187,232.9,187z"/>
	<path d="M243.2,184.9c1.2,0,2.3-1,2.3-2.3s-1-2.3-2.3-2.3s-2.3,1-2.3,2.3S242,184.9,243.2,184.9z"/>
	<path d="M254.4,180.9c0-1-0.9-1.9-1.9-1.9c-1,0-1.9,0.9-1.9,1.9c0,1,0.9,1.9,1.9,1.9C253.6,182.8,254.4,182,254.4,180.9z"/>
	<path d="M262.2,179.2c0-0.8-0.7-1.5-1.5-1.5c-0.8,0-1.5,0.7-1.5,1.5c0,0.8,0.7,1.5,1.5,1.5C261.6,180.7,262.2,180.1,262.2,179.2z"
		/>
	<path d="M267.9,178.7c0.7,0,1.2-0.5,1.2-1.2c0-0.7-0.5-1.2-1.2-1.2c-0.7,0-1.2,0.5-1.2,1.2C266.7,178.1,267.2,178.7,267.9,178.7z"
		/>
	<path d="M274,176.6c0.5,0,0.9-0.4,0.9-0.9s-0.4-0.9-0.9-0.9s-0.9,0.4-0.9,0.9S273.5,176.6,274,176.6z"/>
	<path d="M278.3,173.9c0,0.4,0.3,0.7,0.7,0.7s0.6-0.3,0.6-0.7c0-0.4-0.3-0.6-0.6-0.6S278.3,173.6,278.3,173.9z"/>
	<path d="M283.3,172.1c0-0.2-0.2-0.4-0.4-0.4c-0.2,0-0.4,0.2-0.4,0.4c0,0.2,0.2,0.4,0.4,0.4C283.2,172.5,283.3,172.3,283.3,172.1z"
		/>
	<path d="M285.6,170.3c0,0.1,0.1,0.2,0.2,0.2c0.1,0,0.2-0.1,0.2-0.2c0-0.1-0.1-0.2-0.2-0.2C285.7,170.1,285.6,170.2,285.6,170.3z"/>
	<path d="M287.7,168.5C287.6,168.5,287.6,168.5,287.7,168.5c-0.1,0.1,0,0.2,0,0.2S287.7,168.6,287.7,168.5
		C287.7,168.5,287.7,168.5,287.7,168.5z"/>
	<path d="M1.8,183.7c0,0.1,0.1,0.2,0.2,0.2c0.1,0,0.2-0.1,0.2-0.2c0-0.1-0.1-0.2-0.2-0.2C1.8,183.5,1.8,183.6,1.8,183.7z"/>
	<path d="M6.7,185.5c-0.2,0-0.4,0.2-0.4,0.4c0,0.2,0.2,0.4,0.4,0.4c0.2,0,0.4-0.2,0.4-0.4C7.1,185.7,7,185.5,6.7,185.5z"/>
	<circle cx="12.6" cy="188.2" r="0.6"/>
	<path d="M19.5,189.5c-0.5,0-0.9,0.4-0.9,0.9s0.4,0.9,0.9,0.9s0.9-0.4,0.9-0.9S20,189.5,19.5,189.5z"/>
	<path d="M28.6,192.5c0-0.6-0.5-1.2-1.2-1.2c-0.6,0-1.2,0.5-1.2,1.2c0,0.6,0.5,1.2,1.2,1.2C28.1,193.7,28.6,193.1,28.6,192.5z"/>
	<circle cx="36.4" cy="194.6" r="1.5"/>
	<circle cx="46.5" cy="196.6" r="1.8"/>
	<path d="M57.5,200.8c1.2,0,2.2-1,2.2-2.2c0-1.2-1-2.2-2.2-2.2c-1.2,0-2.2,1-2.2,2.2C55.3,199.8,56.3,200.8,57.5,200.8z"/>
	<path d="M72.2,200.4c0-1.4-1.1-2.5-2.6-2.5S67,199,67,200.4s1.1,2.5,2.5,2.5S72.2,201.8,72.2,200.4z"/>
	<path d="M85.5,202.1c0-1.6-1.3-2.9-2.9-2.9s-2.9,1.3-2.9,2.9c0,1.6,1.3,2.9,2.9,2.9S85.5,203.7,85.5,202.1z"/>
	<path d="M96.6,206.8c1.8,0,3.3-1.5,3.3-3.3c0-1.8-1.5-3.3-3.3-3.3s-3.3,1.5-3.3,3.3C93.3,205.3,94.8,206.8,96.6,206.8z"/>
	<circle cx="111.3" cy="204.6" r="3.6"/>
	<path d="M126.5,209.2c2.2,0,3.9-1.8,3.9-3.9c0-2.2-1.8-3.9-3.9-3.9c-2.2,0-3.9,1.8-3.9,3.9C122.6,207.5,124.4,209.2,126.5,209.2z"
		/>
	<path d="M142.1,201.4c-2.3,0-4.1,1.8-4.1,4.1c0,2.3,1.8,4.1,4.1,4.1s4.1-1.8,4.1-4.1C146.2,203.3,144.4,201.4,142.1,201.4z"/>
	<circle cx="157.7" cy="205.2" r="4.1"/>
	<circle cx="172.8" cy="204.4" r="4.1"/>
	<path d="M187.3,207c2.1,0,3.8-1.7,3.8-3.8s-1.7-3.8-3.8-3.8s-3.8,1.7-3.8,3.8S185.2,207,187.3,207z"/>
	<path d="M201,205.2c2,0,3.5-1.6,3.5-3.5c0-1.9-1.6-3.5-3.5-3.5s-3.5,1.6-3.5,3.5C197.5,203.6,199,205.2,201,205.2z"/>
	<path d="M217,199.9c0-1.8-1.4-3.2-3.2-3.2c-1.8,0-3.2,1.4-3.2,3.2c0,1.8,1.4,3.2,3.2,3.2C215.5,203.2,217,201.7,217,199.9z"/>
	<path d="M225.6,200.9c1.6,0,2.9-1.3,2.9-2.8s-1.3-2.8-2.9-2.8s-2.8,1.3-2.8,2.8S224,200.9,225.6,200.9z"/>
	<path d="M236.4,198.6c1.4,0,2.5-1.1,2.5-2.5s-1.1-2.5-2.5-2.5s-2.5,1.1-2.5,2.5S235,198.6,236.4,198.6z"/>
	<path d="M248.2,194c0-1.2-0.9-2.1-2.1-2.1c-1.2,0-2.1,0.9-2.1,2.1c0,1.2,0.9,2.1,2.1,2.1C247.3,196.1,248.2,195.2,248.2,194z"/>
	<circle cx="254.8" cy="191.9" r="1.8"/>
	<path d="M262.5,191.2c0.8,0,1.4-0.6,1.4-1.4c0-0.8-0.6-1.4-1.4-1.4c-0.8,0-1.4,0.6-1.4,1.4C261,190.5,261.7,191.2,262.5,191.2z"/>
	<circle cx="269.1" cy="187.5" r="1.1"/>
	<circle cx="274.6" cy="185.3" r="0.8"/>
	<circle cx="279.1" cy="183.1" r="0.6"/>
	<circle cx="282.5" cy="180.8" r="0.4"/>
	<path d="M284.8,178.7c0.1,0,0.2-0.1,0.2-0.2c0-0.1-0.1-0.2-0.2-0.2c-0.1,0-0.2,0.1-0.2,0.2C284.6,178.6,284.7,178.7,284.8,178.7z"
		/>
	<path d="M286.1,176.3C286.1,176.3,286.2,176.3,286.1,176.3C286.2,176.2,286.1,176.2,286.1,176.3
		C286.1,176.2,286.1,176.2,286.1,176.3C286.1,176.3,286.1,176.3,286.1,176.3z"/>
	<path d="M2.3,192c0,0.1,0.1,0.2,0.2,0.2c0.1,0,0.2-0.1,0.2-0.2c0-0.1-0.1-0.2-0.2-0.2C2.4,191.9,2.3,192,2.3,192z"/>
	<path d="M6.7,194.4c-0.2,0-0.3,0.2-0.3,0.3s0.2,0.4,0.3,0.4s0.4-0.2,0.4-0.4S6.9,194.4,6.7,194.4z"/>
	<path d="M12.5,197.4c0-0.3-0.2-0.5-0.5-0.5c-0.3,0-0.6,0.2-0.6,0.5s0.2,0.5,0.6,0.5C12.3,197.9,12.5,197.7,12.5,197.4z"/>
	<path d="M18.3,199.2c-0.4,0-0.8,0.4-0.8,0.8s0.4,0.8,0.8,0.8c0.4,0,0.8-0.4,0.8-0.8S18.7,199.2,18.3,199.2z"/>
	<path d="M25.7,201.5c-0.6,0-1.1,0.5-1.1,1.1s0.5,1.1,1.1,1.1c0.6,0,1.1-0.5,1.1-1.1S26.2,201.5,25.7,201.5z"/>
	<path d="M35.4,205c0-0.8-0.6-1.3-1.3-1.3s-1.3,0.6-1.3,1.3s0.6,1.4,1.3,1.4C34.8,206.4,35.4,205.8,35.4,205z"/>
	<path d="M45.2,207.4c0-0.9-0.8-1.7-1.7-1.7s-1.7,0.8-1.7,1.7c0,0.9,0.8,1.7,1.7,1.7S45.2,208.3,45.2,207.4z"/>
	<circle cx="54" cy="209.7" r="2"/>
	<circle cx="65.4" cy="211.8" r="2.3"/>
	<path d="M80.4,213.8c0-1.5-1.2-2.7-2.7-2.7s-2.6,1.2-2.6,2.7s1.2,2.6,2.6,2.6S80.4,215.2,80.4,213.8z"/>
	<path d="M93.9,215.5c0-1.6-1.3-3-3-3c-1.6,0-2.9,1.3-2.9,3c0,1.6,1.3,2.9,2.9,2.9C92.6,218.4,93.9,217.1,93.9,215.5z"/>
	<path d="M105,220c1.8,0,3.2-1.4,3.2-3.2c0-1.8-1.4-3.2-3.2-3.2c-1.8,0-3.2,1.4-3.2,3.2C101.8,218.6,103.2,220,105,220z"/>
	<circle cx="119.5" cy="217.7" r="3.4"/>
	<path d="M134.5,214.6c-2,0-3.6,1.6-3.6,3.6s1.6,3.6,3.6,3.6s3.6-1.6,3.6-3.6S136.5,214.6,134.5,214.6z"/>
	<circle cx="149.6" cy="218.1" r="3.6"/>
	<circle cx="164.5" cy="217.5" r="3.6"/>
	<path d="M178.9,219.9c1.9,0,3.4-1.5,3.4-3.4c0-1.9-1.5-3.4-3.4-3.4c-1.9,0-3.4,1.5-3.4,3.4C175.5,218.3,177,219.9,178.9,219.9z"/>
	<path d="M192.7,218.2c1.8,0,3.2-1.4,3.2-3.2s-1.4-3.2-3.2-3.2s-3.2,1.4-3.2,3.2S191,218.2,192.7,218.2z"/>
	<path d="M205.7,216.1c1.6,0,2.9-1.3,2.9-2.9c0-1.6-1.3-2.9-2.9-2.9s-2.9,1.3-2.9,2.9C202.8,214.8,204.1,216.1,205.7,216.1z"/>
	<circle cx="217.8" cy="211.2" r="2.6"/>
	<circle cx="229" cy="209.1" r="2.2"/>
	<path d="M239.1,208.7c1.1,0,1.9-0.9,1.9-1.9s-0.9-1.9-1.9-1.9s-1.9,0.9-1.9,1.9S238.1,208.7,239.1,208.7z"/>
	<path d="M249.9,204.3c0-0.9-0.7-1.6-1.6-1.6s-1.6,0.7-1.6,1.6s0.7,1.6,1.6,1.6S249.9,205.2,249.9,204.3z"/>
	<path d="M256.4,203.1c0.7,0,1.3-0.6,1.3-1.3c0-0.7-0.6-1.3-1.3-1.3c-0.7,0-1.3,0.6-1.3,1.3C255.1,202.5,255.7,203.1,256.4,203.1z"
		/>
	<circle cx="263.5" cy="199.3" r="1"/>
	<circle cx="269.5" cy="196.6" r="0.8"/>
	<circle cx="274.5" cy="194" r="0.5"/>
	<path d="M278.4,191.6c0.2,0,0.3-0.1,0.3-0.3c0-0.2-0.1-0.3-0.3-0.3c-0.2,0-0.3,0.1-0.3,0.3C278.1,191.4,278.3,191.6,278.4,191.6z"
		/>
	<path d="M281.1,188.6c0,0.1,0.1,0.1,0.2,0.1c0.1,0,0.1-0.1,0.1-0.1s-0.1-0.2-0.1-0.2C281.2,188.4,281.1,188.5,281.1,188.6z"/>
	<circle cx="283.1" cy="185.8" r="0"/>
	<path d="M3.7,199.4C3.7,199.3,3.7,199.3,3.7,199.4C3.7,199.3,3.7,199.3,3.7,199.4C3.7,199.4,3.7,199.4,3.7,199.4
		C3.7,199.4,3.7,199.4,3.7,199.4z"/>
	<circle cx="7.3" cy="202.5" r="0.1"/>
	<path d="M11.8,205.5c0,0.2,0.1,0.3,0.3,0.3c0.1,0,0.3-0.1,0.3-0.3c0-0.1-0.1-0.3-0.3-0.3C11.9,205.3,11.8,205.4,11.8,205.5z"/>
	<path d="M17.8,209c0.3,0,0.5-0.2,0.5-0.5c0-0.3-0.2-0.5-0.5-0.5c-0.3,0-0.5,0.2-0.5,0.5C17.3,208.8,17.5,209,17.8,209z"/>
	<path d="M25.2,211.5c0-0.4-0.3-0.7-0.7-0.7s-0.7,0.3-0.7,0.7s0.3,0.7,0.7,0.7S25.2,211.8,25.2,211.5z"/>
	<circle cx="32.4" cy="214.3" r="0.9"/>
	<path d="M42.4,217c0-0.7-0.5-1.2-1.2-1.2S40,216.4,40,217c0,0.7,0.5,1.2,1.2,1.2S42.4,217.7,42.4,217z"/>
	<path d="M51,221.1c0.8,0,1.5-0.7,1.5-1.5s-0.7-1.5-1.5-1.5s-1.5,0.7-1.5,1.5S50.2,221.1,51,221.1z"/>
	<path d="M63.5,222c0-1-0.8-1.8-1.8-1.8c-1,0-1.8,0.8-1.8,1.8c0,1,0.8,1.8,1.8,1.8C62.8,223.8,63.5,223,63.5,222z"/>
	<path d="M75.5,224.2c0-1.1-0.9-2-2-2c-1.1,0-2.1,0.9-2.1,2s0.9,2,2.1,2C74.6,226.3,75.5,225.4,75.5,224.2z"/>
	<path d="M86,223.8c-1.3,0-2.3,1.1-2.3,2.3s1.1,2.4,2.3,2.4s2.4-1.1,2.4-2.4S87.3,223.8,86,223.8z"/>
	<path d="M101.9,227.8c0-1.4-1.2-2.6-2.6-2.6c-1.4,0-2.6,1.2-2.6,2.6c0,1.4,1.2,2.6,2.6,2.6C100.7,230.4,101.9,229.2,101.9,227.8z"
		/>
	<path d="M113.2,231.8c1.6,0,2.8-1.3,2.8-2.8c0-1.6-1.3-2.8-2.8-2.8c-1.6,0-2.8,1.3-2.8,2.8C110.3,230.5,111.6,231.8,113.2,231.8z"
		/>
	<path d="M130.5,229.6c0-1.7-1.3-3-3-3s-3,1.3-3,3c0,1.7,1.3,3,3,3C129.1,232.7,130.5,231.3,130.5,229.6z"/>
	<circle cx="142" cy="229.8" r="3.1"/>
	<path d="M156.5,232.7c1.8,0,3.2-1.4,3.2-3.2s-1.4-3.2-3.2-3.2s-3.2,1.4-3.2,3.2S154.7,232.7,156.5,232.7z"/>
	<circle cx="170.7" cy="228.7" r="3.1"/>
	<path d="M187.4,227.4c0-1.6-1.3-3-3-3c-1.6,0-3,1.3-3,3s1.3,3,3,3C186,230.3,187.4,229,187.4,227.4z"/>
	<path d="M200.3,225.7c0-1.5-1.2-2.8-2.8-2.8c-1.5,0-2.8,1.2-2.8,2.8c0,1.5,1.2,2.8,2.8,2.8C199,228.5,200.3,227.2,200.3,225.7z"/>
	<path d="M209.8,226.2c1.4,0,2.6-1.1,2.6-2.6s-1.1-2.5-2.6-2.5s-2.5,1.1-2.5,2.5S208.4,226.2,209.8,226.2z"/>
	<path d="M223.5,221.4c0-1.3-1-2.3-2.3-2.3c-1.3,0-2.3,1-2.3,2.3c0,1.3,1,2.3,2.3,2.3C222.5,223.7,223.5,222.6,223.5,221.4z"/>
	<circle cx="231.7" cy="218.9" r="2"/>
	<path d="M243,216.3c0-0.9-0.8-1.7-1.7-1.7s-1.7,0.8-1.7,1.7s0.8,1.7,1.7,1.7S243,217.2,243,216.3z"/>
	<path d="M249.8,214.9c0.8,0,1.4-0.6,1.4-1.4c0-0.8-0.6-1.4-1.4-1.4c-0.8,0-1.4,0.6-1.4,1.4C248.4,214.3,249,214.9,249.8,214.9z"/>
	<circle cx="257.3" cy="210.7" r="1.1"/>
	<circle cx="263.8" cy="207.7" r="0.9"/>
	<circle cx="269.3" cy="204.7" r="0.6"/>
	<path d="M273.7,202c0.2,0,0.4-0.2,0.4-0.4s-0.2-0.4-0.4-0.4c-0.2,0-0.4,0.2-0.4,0.4S273.5,202,273.7,202z"/>
	<circle cx="277" cy="198.5" r="0.2"/>
	<path d="M279.2,195.3c0,0.1,0,0.1,0.1,0.1c0.1,0,0.1,0,0.1-0.1c0-0.1,0-0.1-0.1-0.1S279.2,195.3,279.2,195.3z"/>
	<path d="M285.2,194C285.2,194,285.2,194,285.2,194C285.2,194,285.2,194,285.2,194C285.2,194,285.2,194,285.2,194
		C285.2,194,285.2,194,285.2,194z"/>
	<path d="M8.7,209.2C8.7,209.2,8.8,209.2,8.7,209.2c0.1-0.1,0-0.2,0-0.2S8.6,209.1,8.7,209.2C8.6,209.2,8.6,209.2,8.7,209.2z"/>
	<path d="M12.6,212.6c0,0.1,0.1,0.2,0.2,0.2c0.1,0,0.2-0.1,0.2-0.2c0-0.1-0.1-0.2-0.2-0.2C12.7,212.4,12.6,212.5,12.6,212.6z"/>
	<circle cx="17.9" cy="216" r="0.4"/>
	<circle cx="24.1" cy="219.3" r="0.6"/>
	<circle cx="31.3" cy="222.4" r="0.8"/>
	<circle cx="39.5" cy="225.5" r="1"/>
	<path d="M49.9,228.4c0-0.7-0.6-1.3-1.3-1.3s-1.3,0.6-1.3,1.3c0,0.7,0.6,1.3,1.3,1.3S49.9,229.1,49.9,228.4z"/>
	<path d="M58.8,232.6c0.8,0,1.5-0.7,1.5-1.5c0-0.8-0.7-1.5-1.5-1.5c-0.8,0-1.5,0.7-1.5,1.5C57.3,231.9,57.9,232.6,58.8,232.6z"/>
	<path d="M71.5,233.5c0-1-0.8-1.8-1.8-1.8c-1,0-1.8,0.8-1.8,1.8c0,1,0.8,1.8,1.8,1.8C70.8,235.3,71.5,234.5,71.5,233.5z"/>
	<path d="M81.6,233.7c-1.1,0-2,0.9-2,2c0,1.1,0.9,2,2,2c1.1,0,2-0.9,2-2C83.6,234.6,82.7,233.7,81.6,233.7z"/>
	<circle cx="94.2" cy="237.5" r="2.2"/>
	<path d="M109.8,239c0-1.4-1.1-2.5-2.5-2.5s-2.5,1.1-2.5,2.5c0,1.4,1.1,2.4,2.5,2.4S109.8,240.3,109.8,239z"/>
	<path d="M123.6,239.9c0-1.4-1.2-2.6-2.6-2.6c-1.4,0-2.6,1.2-2.6,2.6c0,1.4,1.2,2.6,2.6,2.6C122.4,242.5,123.6,241.4,123.6,239.9z"
		/>
	<path d="M134.9,237.7c-1.5,0-2.7,1.2-2.7,2.7c0,1.5,1.2,2.7,2.7,2.7c1.5,0,2.7-1.2,2.7-2.7C137.6,238.9,136.4,237.7,134.9,237.7z"
		/>
	<path d="M151.6,240.3c0-1.5-1.2-2.7-2.7-2.7c-1.5,0-2.7,1.2-2.7,2.7s1.2,2.7,2.7,2.7C150.4,243,151.6,241.8,151.6,240.3z"/>
	<path d="M165.4,239.7c0-1.5-1.2-2.7-2.7-2.7c-1.5,0-2.7,1.2-2.7,2.7c0,1.5,1.2,2.7,2.7,2.7C164.2,242.4,165.4,241.2,165.4,239.7z"
		/>
	<circle cx="176.3" cy="238.6" r="2.6"/>
	<path d="M191.7,237c0-1.3-1.1-2.4-2.4-2.4c-1.3,0-2.4,1.1-2.4,2.4c0,1.3,1.1,2.4,2.4,2.4C190.6,239.5,191.7,238.4,191.7,237z"/>
	<circle cx="201.7" cy="235.1" r="2.2"/>
	<path d="M215.2,232.9c0-1.1-0.9-2-2-2c-1.1,0-2,0.9-2,2c0,1.1,0.9,2,2,2C214.4,234.8,215.2,234,215.2,232.9z"/>
	<path d="M224,232.1c0.9,0,1.7-0.8,1.7-1.7c0-0.9-0.8-1.7-1.7-1.7c-0.9,0-1.7,0.8-1.7,1.7C222.3,231.3,223.1,232.1,224,232.1z"/>
	<path d="M233.9,229.1c0.8,0,1.5-0.7,1.5-1.5s-0.7-1.5-1.5-1.5s-1.5,0.7-1.5,1.5S233.1,229.1,233.9,229.1z"/>
	<path d="M242.8,225.9c0.7,0,1.2-0.5,1.2-1.2c0-0.7-0.5-1.2-1.2-1.2s-1.2,0.5-1.2,1.2C241.5,225.3,242.1,225.9,242.8,225.9z"/>
	<path d="M250.7,222.5c0.5,0,1-0.4,1-1c0-0.5-0.4-1-1-1c-0.5,0-1,0.4-1,1C249.7,222.1,250.2,222.5,250.7,222.5z"/>
	<path d="M258.3,218.4c0-0.4-0.3-0.7-0.7-0.7c-0.4,0-0.7,0.3-0.7,0.7c0,0.4,0.3,0.7,0.7,0.7C258,219.1,258.3,218.8,258.3,218.4z"/>
	<path d="M263,215c0,0.3,0.2,0.5,0.5,0.5c0.3,0,0.5-0.2,0.5-0.5s-0.2-0.5-0.5-0.5C263.2,214.5,263,214.8,263,215z"/>
	<circle cx="268.4" cy="211.6" r="0.3"/>
	<path d="M272,208.2c0,0.1,0.1,0.2,0.2,0.2c0.1,0,0.2-0.1,0.2-0.2s-0.1-0.2-0.2-0.2C272.1,208,272,208.1,272,208.2z"/>
	<path d="M275,204.6C275,204.6,275,204.6,275,204.6C274.9,204.6,274.9,204.6,275,204.6C274.9,204.7,274.9,204.7,275,204.6
		C275,204.7,275,204.7,275,204.6z"/>
	<path d="M14.2,218.6C14.2,218.6,14.2,218.6,14.2,218.6C14.2,218.5,14.2,218.5,14.2,218.6C14.2,218.5,14.2,218.5,14.2,218.6
		C14.2,218.6,14.2,218.6,14.2,218.6z"/>
	<circle cx="18.8" cy="222.3" r="0.1"/>
	<path d="M24.3,225.6c-0.2,0-0.3,0.1-0.3,0.3s0.1,0.3,0.3,0.3c0.1,0,0.3-0.1,0.3-0.3S24.5,225.6,24.3,225.6z"/>
	<path d="M31.3,229.4c0-0.2-0.2-0.5-0.4-0.5c-0.2,0-0.5,0.2-0.5,0.5s0.2,0.5,0.5,0.5C31.1,229.9,31.3,229.7,31.3,229.4z"/>
	<circle cx="38.5" cy="232.8" r="0.6"/>
	<path d="M47.8,235.9c0-0.5-0.4-0.9-0.8-0.9c-0.5,0-0.9,0.4-0.9,0.9c0,0.5,0.4,0.8,0.9,0.8C47.4,236.8,47.8,236.4,47.8,235.9z"/>
	<path d="M56.4,240c0.6,0,1-0.5,1-1.1c0-0.6-0.5-1-1-1c-0.6,0-1,0.5-1,1C55.3,239.5,55.8,240,56.4,240z"/>
	<path d="M66.7,240.4c-0.7,0-1.3,0.6-1.3,1.3c0,0.7,0.6,1.3,1.3,1.3s1.3-0.6,1.3-1.3C68,240.9,67.4,240.4,66.7,240.4z"/>
	<circle cx="77.8" cy="244" r="1.5"/>
	<path d="M89.6,244.4c-1,0-1.7,0.8-1.7,1.7s0.8,1.7,1.7,1.7s1.7-0.8,1.7-1.7S90.6,244.4,89.6,244.4z"/>
	<path d="M104,247.8c0-1-0.9-1.9-1.9-1.9c-1,0-1.9,0.9-1.9,1.9c0,1,0.9,1.9,1.9,1.9C103.2,249.7,104,248.8,104,247.8z"/>
	<circle cx="115.1" cy="249" r="2.1"/>
	<path d="M130.6,249.7c0-1.2-1-2.2-2.2-2.2s-2.2,1-2.2,2.2s1,2.2,2.2,2.2S130.6,250.9,130.6,249.7z"/>
	<path d="M144.1,249.9c0-1.3-1-2.3-2.3-2.3c-1.3,0-2.3,1-2.3,2.3c0,1.3,1,2.3,2.3,2.3C143.1,252.2,144.1,251.2,144.1,249.9z"/>
	<circle cx="155.3" cy="249.6" r="2.3"/>
	<circle cx="168.5" cy="248.7" r="2.2"/>
	<path d="M181.3,245.2c-1.2,0-2.2,1-2.2,2.2c0,1.2,1,2.2,2.2,2.2c1.2,0,2.2-1,2.2-2.2C183.5,246.2,182.5,245.2,181.3,245.2z"/>
	<path d="M195.7,245.6c0-1.1-0.9-2-2-2s-2,0.9-2,2c0,1.1,0.9,2,2,2C194.8,247.6,195.7,246.7,195.7,245.6z"/>
	<circle cx="205.3" cy="243.4" r="1.9"/>
	<path d="M216.2,242.6c0.9,0,1.7-0.7,1.7-1.7c0-0.9-0.7-1.7-1.7-1.7c-0.9,0-1.7,0.7-1.7,1.7C214.5,241.8,215.2,242.6,216.2,242.6z"
		/>
	<path d="M226.2,239.5c0.8,0,1.5-0.6,1.5-1.5c0-0.8-0.6-1.4-1.5-1.4c-0.8,0-1.4,0.6-1.4,1.4C224.8,238.9,225.4,239.5,226.2,239.5z"
		/>
	<path d="M235.4,236.3c0.7,0,1.2-0.5,1.2-1.2c0-0.7-0.5-1.2-1.2-1.2c-0.7,0-1.2,0.5-1.2,1.2C234.2,235.8,234.7,236.3,235.4,236.3z"
		/>
	<circle cx="243.7" cy="231.8" r="1"/>
	<path d="M251.7,228.5c0-0.4-0.4-0.8-0.8-0.8s-0.8,0.4-0.8,0.8s0.4,0.8,0.8,0.8S251.7,228.9,251.7,228.5z"/>
	<circle cx="257.2" cy="224.9" r="0.6"/>
	<path d="M262.5,221.7c0.2,0,0.4-0.2,0.4-0.4c0-0.2-0.2-0.4-0.4-0.4c-0.2,0-0.4,0.2-0.4,0.4C262.1,221.5,262.3,221.7,262.5,221.7z"
		/>
	<circle cx="266.8" cy="217.5" r="0.2"/>
	<path d="M270,213.8c0.1,0,0.1,0,0.1-0.1c0-0.1,0-0.1-0.1-0.1s-0.1,0-0.1,0.1C269.9,213.7,269.9,213.8,270,213.8z"/>
	<path d="M276.2,212C276.2,212,276.2,212,276.2,212C276.2,212,276.2,212,276.2,212C276.2,212,276.2,212,276.2,212
		C276.2,212,276.2,212,276.2,212z"/>
	<path d="M20.2,227.5C20.3,227.5,20.3,227.5,20.2,227.5c0.1-0.1,0-0.2,0-0.2S20.2,227.4,20.2,227.5
		C20.2,227.5,20.2,227.5,20.2,227.5z"/>
	<circle cx="25.2" cy="231.4" r="0.2"/>
	<circle cx="31.1" cy="235.2" r="0.3"/>
	<path d="M38,238.4c-0.3,0-0.5,0.2-0.5,0.5s0.2,0.5,0.5,0.5s0.5-0.2,0.5-0.5S38.3,238.4,38,238.4z"/>
	<path d="M46.5,242.3c0-0.4-0.3-0.7-0.7-0.7c-0.4,0-0.6,0.3-0.6,0.7c0,0.4,0.3,0.6,0.6,0.6C46.2,243,46.5,242.7,46.5,242.3z"/>
	<path d="M54.6,246.4c0.5,0,0.9-0.4,0.9-0.8c0-0.5-0.4-0.9-0.9-0.9c-0.5,0-0.8,0.4-0.8,0.9C53.8,246,54.1,246.4,54.6,246.4z"/>
	<path d="M64.2,249.6c0.6,0,1-0.5,1-1c0-0.6-0.5-1.1-1-1.1s-1,0.5-1,1.1C63.2,249.1,63.6,249.6,64.2,249.6z"/>
	<path d="M75.8,251.2c0-0.7-0.5-1.2-1.2-1.2c-0.7,0-1.2,0.6-1.2,1.2s0.5,1.2,1.2,1.2C75.3,252.4,75.8,251.9,75.8,251.2z"/>
	<path d="M87.1,253.5c0-0.8-0.6-1.4-1.4-1.4c-0.8,0-1.4,0.6-1.4,1.4c0,0.8,0.6,1.4,1.4,1.4C86.5,254.9,87.1,254.3,87.1,253.5z"/>
	<circle cx="97.5" cy="255.4" r="1.6"/>
	<circle cx="109.8" cy="256.9" r="1.7"/>
	<path d="M124.2,257.8c0-1-0.8-1.8-1.8-1.8c-1,0-1.8,0.8-1.8,1.8c0,1,0.8,1.8,1.8,1.8C123.4,259.6,124.2,258.8,124.2,257.8z"/>
	<circle cx="135.3" cy="258.3" r="1.9"/>
	<circle cx="148.2" cy="258.2" r="1.9"/>
	<path d="M162.9,257.6c0-1-0.8-1.9-1.9-1.9s-1.8,0.8-1.8,1.9s0.8,1.8,1.8,1.8S162.9,258.6,162.9,257.6z"/>
	<path d="M173.6,258.3c1,0,1.8-0.8,1.8-1.8s-0.8-1.8-1.8-1.8c-1,0-1.8,0.8-1.8,1.8C171.8,257.5,172.6,258.3,173.6,258.3z"/>
	<circle cx="185.8" cy="254.9" r="1.7"/>
	<path d="M198.9,252.9c0-0.9-0.7-1.6-1.5-1.6c-0.9,0-1.6,0.7-1.6,1.6c0,0.9,0.7,1.5,1.6,1.5C198.2,254.4,198.9,253.7,198.9,252.9z"
		/>
	<circle cx="208.3" cy="250.5" r="1.4"/>
	<path d="M218.5,248.9c0.7,0,1.2-0.5,1.2-1.2c0-0.7-0.5-1.2-1.2-1.2c-0.7,0-1.2,0.5-1.2,1.2C217.3,248.4,217.8,248.9,218.5,248.9z"
		/>
	<circle cx="227.8" cy="244.7" r="1"/>
	<path d="M236.3,242.2c0.4,0,0.8-0.4,0.8-0.8s-0.4-0.8-0.8-0.8s-0.8,0.4-0.8,0.8S235.9,242.2,236.3,242.2z"/>
	<circle cx="243.9" cy="237.9" r="0.6"/>
	<path d="M250.5,233.7c-0.2,0-0.4,0.2-0.4,0.5s0.2,0.5,0.4,0.5s0.5-0.2,0.5-0.5S250.8,233.7,250.5,233.7z"/>
	<path d="M256.2,230.6c0.2,0,0.3-0.1,0.3-0.3c0-0.1-0.1-0.3-0.3-0.3c-0.1,0-0.3,0.1-0.3,0.3C255.9,230.5,256.1,230.6,256.2,230.6z"
		/>
	<path d="M260.7,226.3c0,0.1,0.1,0.2,0.1,0.2c0.1,0,0.2-0.1,0.2-0.2c0-0.1-0.1-0.1-0.2-0.1C260.8,226.2,260.7,226.3,260.7,226.3z"/>
	<circle cx="264.5" cy="222.2" r="0"/>
	<path d="M26.7,235.8C26.7,235.8,26.7,235.8,26.7,235.8C26.7,235.7,26.7,235.7,26.7,235.8C26.7,235.7,26.6,235.7,26.7,235.8
		C26.6,235.8,26.7,235.8,26.7,235.8z"/>
	<path d="M31.8,239.9c0,0.1,0,0.1,0.1,0.1s0.1,0,0.1-0.1s0-0.1-0.1-0.1S31.8,239.8,31.8,239.9z"/>
	<circle cx="38.2" cy="243.8" r="0.2"/>
	<path d="M45.3,247.2c-0.2,0-0.3,0.2-0.3,0.3s0.2,0.4,0.3,0.4s0.4-0.2,0.4-0.4S45.5,247.2,45.3,247.2z"/>
	<path d="M53.9,251c0-0.3-0.2-0.5-0.5-0.5c-0.3,0-0.5,0.2-0.5,0.5c0,0.3,0.2,0.5,0.5,0.5C53.7,251.5,53.9,251.3,53.9,251z"/>
	<path d="M61.7,254.2c0,0.4,0.3,0.7,0.7,0.7s0.7-0.3,0.7-0.7c0-0.4-0.3-0.6-0.7-0.6S61.7,253.9,61.7,254.2z"/>
	<circle cx="72" cy="257.1" r="0.8"/>
	<path d="M83.4,259.7c0-0.5-0.4-1-1-1c-0.5,0-1,0.4-1,1c0,0.5,0.4,1,1,1C83,260.6,83.4,260.2,83.4,259.7z"/>
	<circle cx="93.5" cy="261.8" r="1.1"/>
	<circle cx="105" cy="263.5" r="1.2"/>
	<circle cx="117" cy="264.8" r="1.4"/>
	<path d="M129.3,266.9c0.8,0,1.5-0.7,1.5-1.5c0-0.8-0.6-1.5-1.5-1.5c-0.8,0-1.4,0.6-1.4,1.5C127.8,266.3,128.5,266.9,129.3,266.9z"
		/>
	<circle cx="141.7" cy="265.7" r="1.5"/>
	<path d="M155.6,265.3c0-0.8-0.7-1.5-1.5-1.5c-0.8,0-1.5,0.7-1.5,1.5c0,0.8,0.7,1.5,1.5,1.5C154.9,266.9,155.6,266.2,155.6,265.3z"
		/>
	<circle cx="166.3" cy="264.5" r="1.5"/>
	<path d="M179.6,263.1c0-0.8-0.6-1.4-1.4-1.4c-0.8,0-1.4,0.6-1.4,1.4c0,0.8,0.6,1.4,1.4,1.4C178.9,264.5,179.6,263.9,179.6,263.1z"
		/>
	<path d="M189.6,259.9c-0.8,0-1.4,0.6-1.4,1.3s0.6,1.4,1.4,1.4c0.7,0,1.3-0.6,1.3-1.4S190.3,259.9,189.6,259.9z"/>
	<path d="M201.7,259c0-0.7-0.5-1.2-1.2-1.2s-1.2,0.5-1.2,1.2c0,0.7,0.6,1.2,1.2,1.2C201.1,260.2,201.7,259.7,201.7,259z"/>
	<path d="M210.7,257.5c0.6,0,1.1-0.5,1.1-1.1c0-0.6-0.5-1.1-1.1-1.1s-1.1,0.5-1.1,1.1C209.6,257,210.1,257.5,210.7,257.5z"/>
	<path d="M220.2,254.3c0.5,0,0.9-0.4,0.9-0.9s-0.4-0.9-0.9-0.9c-0.5,0-0.9,0.4-0.9,0.9S219.6,254.3,220.2,254.3z"/>
	<path d="M228.8,250.8c0.4,0,0.8-0.3,0.8-0.8c0-0.4-0.4-0.8-0.8-0.8s-0.8,0.3-0.8,0.8C228.1,250.5,228.4,250.8,228.8,250.8z"/>
	<path d="M237.2,246.5c0-0.3-0.3-0.6-0.6-0.6s-0.6,0.3-0.6,0.6c0,0.3,0.3,0.6,0.6,0.6S237.2,246.8,237.2,246.5z"/>
	<path d="M243.5,242.3c-0.2,0-0.4,0.2-0.4,0.5s0.2,0.5,0.4,0.5s0.5-0.2,0.5-0.5S243.8,242.3,243.5,242.3z"/>
	<path d="M249.5,239c0.2,0,0.3-0.1,0.3-0.3s-0.1-0.3-0.3-0.3c-0.2,0-0.3,0.1-0.3,0.3S249.4,239,249.5,239z"/>
	<path d="M254.4,234.6c0,0.1,0.1,0.2,0.2,0.2c0.1,0,0.2-0.1,0.2-0.2c0-0.1-0.1-0.2-0.2-0.2C254.4,234.4,254.4,234.5,254.4,234.6z"/>
	<path d="M258.5,230.3C258.5,230.3,258.5,230.4,258.5,230.3c0.1,0.1,0.2,0,0.2,0C258.7,230.2,258.6,230.2,258.5,230.3
		C258.5,230.2,258.5,230.2,258.5,230.3z"/>
	<path d="M33.4,243.4C33.4,243.4,33.4,243.3,33.4,243.4C33.4,243.3,33.4,243.3,33.4,243.4C33.4,243.3,33.4,243.3,33.4,243.4
		C33.4,243.3,33.4,243.4,33.4,243.4z"/>
	<path d="M38.9,247.5c0,0.1,0,0.1,0.1,0.1c0.1,0,0.1,0,0.1-0.1s0-0.1-0.1-0.1C38.9,247.5,38.9,247.5,38.9,247.5z"/>
	<path d="M45.3,251.5c0,0.1,0.1,0.2,0.2,0.2c0.1,0,0.2-0.1,0.2-0.2c0-0.1-0.1-0.2-0.2-0.2C45.3,251.3,45.3,251.4,45.3,251.5z"/>
	<circle cx="52.8" cy="255.3" r="0.3"/>
	<circle cx="61" cy="258.7" r="0.5"/>
	<path d="M69.4,261.9c0,0.3,0.3,0.6,0.6,0.6s0.6-0.3,0.6-0.6s-0.3-0.6-0.6-0.6S69.4,261.6,69.4,261.9z"/>
	<path d="M79.7,265.4c0.4,0,0.7-0.3,0.7-0.7c0-0.4-0.3-0.7-0.7-0.7c-0.4,0-0.7,0.3-0.7,0.7C79,265.1,79.3,265.4,79.7,265.4z"/>
	<path d="M90.9,267.1c0-0.5-0.4-0.9-0.8-0.9c-0.5,0-0.9,0.4-0.9,0.9c0,0.5,0.4,0.8,0.9,0.8C90.5,267.9,90.9,267.5,90.9,267.1z"/>
	<path d="M101.9,269c0-0.5-0.4-1-1-1c-0.5,0-1,0.4-1,1c0,0.5,0.4,1,1,1C101.5,270,101.9,269.5,101.9,269z"/>
	<path d="M112.2,271.5c0.6,0,1-0.5,1-1c0-0.6-0.5-1-1-1c-0.6,0-1.1,0.5-1.1,1C111.2,271.1,111.6,271.5,112.2,271.5z"/>
	<path d="M123.8,272.6c0.6,0,1.1-0.5,1.1-1.1s-0.5-1.1-1.1-1.1c-0.6,0-1.1,0.5-1.1,1.1S123.2,272.6,123.8,272.6z"/>
	<path d="M135.7,270.8c-0.6,0-1.2,0.5-1.2,1.2s0.5,1.2,1.2,1.2c0.7,0,1.2-0.5,1.2-1.2S136.3,270.8,135.7,270.8z"/>
	<path d="M148.7,271.9c0-0.6-0.5-1.2-1.2-1.2c-0.6,0-1.2,0.5-1.2,1.2s0.5,1.2,1.2,1.2C148.2,273,148.7,272.5,148.7,271.9z"/>
	<path d="M160.5,271.2c0-0.6-0.5-1.2-1.2-1.2s-1.1,0.5-1.1,1.2c0,0.6,0.5,1.1,1.1,1.1C160,272.4,160.5,271.9,160.5,271.2z"/>
	<circle cx="170.9" cy="270.1" r="1.1"/>
	<circle cx="182.1" cy="268.5" r="1"/>
	<circle cx="192.8" cy="266.4" r="1"/>
	<circle cx="203" cy="263.9" r="0.8"/>
	<path d="M212.5,261.7c0.4,0,0.7-0.3,0.7-0.7s-0.3-0.7-0.7-0.7c-0.4,0-0.7,0.3-0.7,0.7S212.1,261.7,212.5,261.7z"/>
	<circle cx="221.2" cy="257.8" r="0.6"/>
	<path d="M229.6,254.3c0-0.2-0.2-0.4-0.4-0.4c-0.2,0-0.4,0.2-0.4,0.4c0,0.2,0.2,0.4,0.4,0.4C229.5,254.7,229.6,254.5,229.6,254.3z"
		/>
	<path d="M236,250.5c0,0.2,0.1,0.3,0.3,0.3c0.2,0,0.3-0.1,0.3-0.3c0-0.2-0.1-0.3-0.3-0.3C236.2,250.1,236,250.3,236,250.5z"/>
	<path d="M242.6,246.6c0.1,0,0.2-0.1,0.2-0.2c0-0.1-0.1-0.2-0.2-0.2c-0.1,0-0.2,0.1-0.2,0.2C242.4,246.5,242.5,246.6,242.6,246.6z"
		/>
	<circle cx="247.9" cy="242.1" r="0.1"/>
	<path d="M253.7,239C253.7,239,253.7,239,253.7,239C253.7,239,253.7,239,253.7,239C253.7,239,253.7,239,253.7,239
		C253.7,239,253.7,239,253.7,239z"/>
	<path d="M46.2,254.4C46.2,254.4,46.2,254.4,46.2,254.4C46.2,254.3,46.2,254.3,46.2,254.4C46.2,254.3,46.2,254.3,46.2,254.4
		C46.2,254.4,46.2,254.4,46.2,254.4z"/>
	<path d="M52.7,258.3c0,0.1,0,0.1,0.1,0.1s0.1,0,0.1-0.1s0-0.1-0.1-0.1S52.7,258.3,52.7,258.3z"/>
	<circle cx="60.3" cy="262.1" r="0.2"/>
	<path d="M68.3,265.5c0,0.2,0.1,0.3,0.3,0.3c0.2,0,0.3-0.1,0.3-0.3s-0.1-0.3-0.3-0.3C68.4,265.2,68.3,265.3,68.3,265.5z"/>
	<path d="M77.2,268.5c0,0.2,0.2,0.4,0.4,0.4c0.2,0,0.4-0.2,0.4-0.4c0-0.2-0.2-0.4-0.4-0.4C77.4,268.1,77.2,268.2,77.2,268.5z"/>
	<circle cx="87.2" cy="271.1" r="0.5"/>
	<path d="M96.8,273.3c0,0.3,0.3,0.6,0.6,0.6s0.6-0.3,0.6-0.6s-0.3-0.6-0.6-0.6S96.8,273,96.8,273.3z"/>
	<circle cx="108" cy="275" r="0.7"/>
	<path d="M119,277c0.4,0,0.8-0.3,0.8-0.8s-0.4-0.8-0.8-0.8s-0.8,0.4-0.8,0.8S118.6,277,119,277z"/>
	<circle cx="130.2" cy="277" r="0.8"/>
	<circle cx="141.5" cy="277.2" r="0.9"/>
	<circle cx="152.8" cy="276.8" r="0.9"/>
	<path d="M164,276.8c0.5,0,0.8-0.4,0.8-0.9c0-0.5-0.4-0.8-0.8-0.8c-0.5,0-0.9,0.4-0.9,0.8C163.2,276.4,163.5,276.8,164,276.8z"/>
	<circle cx="174.9" cy="274.6" r="0.8"/>
	<circle cx="185.4" cy="272.7" r="0.8"/>
	<path d="M195.5,271.1c0.4,0,0.7-0.3,0.7-0.7c0-0.4-0.3-0.7-0.7-0.7s-0.7,0.3-0.7,0.7C194.8,270.8,195.1,271.1,195.5,271.1z"/>
	<path d="M204.3,267.7c0,0.3,0.3,0.6,0.6,0.6c0.3,0,0.6-0.3,0.6-0.6s-0.3-0.6-0.6-0.6C204.6,267.1,204.3,267.3,204.3,267.7z"/>
	<path d="M213.7,265c0.3,0,0.5-0.2,0.5-0.5s-0.2-0.5-0.5-0.5s-0.5,0.2-0.5,0.5S213.4,265,213.7,265z"/>
	<circle cx="221.7" cy="261.1" r="0.4"/>
	<path d="M229,257c-0.2,0-0.3,0.1-0.3,0.3c0,0.1,0.1,0.3,0.3,0.3c0.1,0,0.3-0.1,0.3-0.3C229.3,257.1,229.2,257,229,257z"/>
	<path d="M235.4,253.4c0.1,0,0.2-0.1,0.2-0.2c0-0.1-0.1-0.2-0.2-0.2c-0.1,0-0.2,0.1-0.2,0.2C235.3,253.3,235.4,253.4,235.4,253.4z"
		/>
	<circle cx="241" cy="248.9" r="0.1"/>
	<path d="M249.2,248C249.2,248,249.2,248,249.2,248C249.2,248,249.2,248,249.2,248C249.2,248,249.2,248,249.2,248
		C249.2,248,249.2,248,249.2,248z"/>
	<path d="M53.5,260.3C53.5,260.3,53.5,260.2,53.5,260.3C53.5,260.2,53.5,260.2,53.5,260.3C53.4,260.2,53.4,260.2,53.5,260.3
		C53.4,260.2,53.4,260.3,53.5,260.3z"/>
	<path d="M60.2,264.3C60.3,264.3,60.3,264.2,60.2,264.3c0.1-0.1,0-0.2,0-0.2S60.2,264.1,60.2,264.3
		C60.2,264.2,60.2,264.3,60.2,264.3z"/>
	<path d="M67.6,267.8c0,0.1,0.1,0.1,0.1,0.1c0.1,0,0.2-0.1,0.2-0.1c0-0.1-0.1-0.2-0.2-0.2C67.7,267.7,67.6,267.7,67.6,267.8z"/>
	<path d="M75.8,271.1c0,0.1,0.1,0.2,0.2,0.2c0.1,0,0.2-0.1,0.2-0.2c0-0.1-0.1-0.2-0.2-0.2C75.9,270.9,75.8,271,75.8,271.1z"/>
	<circle cx="85" cy="273.9" r="0.3"/>
	<path d="M94.4,276.8c0.2,0,0.4-0.2,0.4-0.4c0-0.2-0.2-0.4-0.4-0.4c-0.2,0-0.4,0.2-0.4,0.4C94,276.6,94.2,276.8,94.4,276.8z"/>
	<path d="M103.9,278.4c0,0.3,0.2,0.5,0.5,0.5s0.5-0.2,0.5-0.5s-0.2-0.5-0.5-0.5S103.9,278.1,103.9,278.4z"/>
	<path d="M114.7,279.3c-0.3,0-0.5,0.2-0.5,0.5c0,0.3,0.2,0.5,0.5,0.5s0.5-0.2,0.5-0.5C115.2,279.6,115,279.3,114.7,279.3z"/>
	<circle cx="125.3" cy="280.8" r="0.6"/>
	<path d="M136.1,280.7c-0.3,0-0.6,0.3-0.6,0.6s0.3,0.6,0.6,0.6s0.6-0.3,0.6-0.6S136.4,280.7,136.1,280.7z"/>
	<path d="M146.9,281.8c0.3,0,0.6-0.3,0.6-0.6s-0.3-0.6-0.6-0.6c-0.3,0-0.6,0.3-0.6,0.6S146.5,281.8,146.9,281.8z"/>
	<path d="M157.6,281.2c0.3,0,0.6-0.3,0.6-0.6s-0.3-0.6-0.6-0.6s-0.6,0.3-0.6,0.6S157.2,281.2,157.6,281.2z"/>
	<circle cx="168.1" cy="279.5" r="0.6"/>
	<path d="M177.8,277.9c0,0.3,0.2,0.5,0.5,0.5c0.3,0,0.5-0.2,0.5-0.5c0-0.3-0.2-0.5-0.5-0.5C178.1,277.3,177.8,277.6,177.8,277.9z"/>
	<path d="M187.7,275.8c0,0.2,0.2,0.5,0.4,0.5s0.5-0.2,0.5-0.5s-0.2-0.5-0.5-0.5S187.7,275.5,187.7,275.8z"/>
	<circle cx="197.5" cy="273.2" r="0.4"/>
	<path d="M205.9,270.2c0,0.2,0.1,0.3,0.3,0.3c0.2,0,0.3-0.1,0.3-0.3c0-0.2-0.1-0.3-0.3-0.3C206.1,269.9,205.9,270,205.9,270.2z"/>
	<path d="M214.5,266.8c0-0.1-0.1-0.2-0.2-0.2c-0.1,0-0.2,0.1-0.2,0.2c0,0.1,0.1,0.2,0.2,0.2C214.4,267.1,214.5,267,214.5,266.8z"/>
	<circle cx="221.6" cy="263.1" r="0.1"/>
	<path d="M228.2,259.2C228.2,259.2,228.3,259.1,228.2,259.2c0.1-0.1,0-0.2,0-0.2S228.1,259,228.2,259.2
		C228.1,259.1,228.2,259.2,228.2,259.2z"/>
	<path d="M235.7,257C235.7,257,235.7,257,235.7,257C235.7,257,235.7,257,235.7,257C235.7,257,235.7,257,235.7,257
		C235.7,257,235.7,257,235.7,257z"/>
	<circle cx="75.1" cy="272.5" r="0"/>
	<path d="M83.3,275.7c0.1,0,0.1,0,0.1-0.1s0-0.1-0.1-0.1s-0.1,0-0.1,0.1S83.3,275.7,83.3,275.7z"/>
	<path d="M91.9,278.3c0,0.1,0.1,0.2,0.2,0.2s0.1-0.1,0.1-0.2c0-0.1-0.1-0.1-0.1-0.1S91.9,278.2,91.9,278.3z"/>
	<path d="M101.1,280.5c0,0.1,0.1,0.2,0.2,0.2s0.2-0.1,0.2-0.2c0-0.1-0.1-0.2-0.2-0.2S101.1,280.4,101.1,280.5z"/>
	<path d="M111,282.5c0.2,0,0.3-0.1,0.3-0.3c0-0.2-0.1-0.3-0.3-0.3c-0.1,0-0.3,0.1-0.3,0.3C110.7,282.4,110.8,282.5,111,282.5z"/>
	<circle cx="121" cy="283.5" r="0.3"/>
	<path d="M131.1,284.6c0.2,0,0.4-0.2,0.4-0.4s-0.2-0.3-0.4-0.3s-0.3,0.2-0.3,0.3S130.9,284.6,131.1,284.6z"/>
	<circle cx="141.4" cy="284.4" r="0.4"/>
	<circle cx="151.6" cy="284.1" r="0.4"/>
	<circle cx="161.8" cy="283.2" r="0.4"/>
	<path d="M171.3,281.8c0,0.2,0.2,0.3,0.4,0.3s0.3-0.2,0.3-0.3s-0.2-0.4-0.3-0.4S171.3,281.6,171.3,281.8z"/>
	<circle cx="181.2" cy="279.9" r="0.3"/>
	<path d="M190.3,277.3c-0.1,0-0.3,0.1-0.3,0.3s0.1,0.3,0.3,0.3s0.3-0.1,0.3-0.3S190.5,277.3,190.3,277.3z"/>
	<circle cx="198.9" cy="274.8" r="0.2"/>
	<path d="M207,271.7c0.1,0,0.1-0.1,0.1-0.1c0-0.1-0.1-0.2-0.1-0.2s-0.2,0.1-0.2,0.2C206.8,271.6,206.9,271.7,207,271.7z"/>
	<path d="M214.2,267.9C214.2,268,214.2,268,214.2,267.9c0.2,0.1,0.2,0.1,0.2,0s0-0.1-0.1-0.1C214.2,267.8,214.2,267.9,214.2,267.9z"
		/>
	<circle cx="222.2" cy="266" r="0"/>
	<path d="M82.3,276.1C82.3,276.1,82.3,276.1,82.3,276.1C82.3,276,82.3,276,82.3,276.1C82.3,276,82.2,276,82.3,276.1
		C82.2,276.1,82.3,276.1,82.3,276.1z"/>
	<path d="M90.3,279C90.3,279,90.4,279,90.3,279C90.4,279,90.4,278.9,90.3,279C90.3,278.9,90.3,279,90.3,279
		C90.3,279,90.3,279,90.3,279z"/>
	<path d="M98.9,281.5C98.9,281.5,99,281.5,98.9,281.5c0.1-0.1,0-0.2,0-0.2S98.8,281.4,98.9,281.5C98.8,281.5,98.8,281.5,98.9,281.5z
		"/>
	<circle cx="107.9" cy="283.5" r="0.1"/>
	<path d="M117,285c0,0.1,0.1,0.1,0.2,0.1s0.2-0.1,0.2-0.1c0-0.1-0.1-0.2-0.2-0.2S117,284.9,117,285z"/>
	<path d="M126.6,285.9c0,0.1,0.1,0.2,0.2,0.2s0.2-0.1,0.2-0.2c0-0.1-0.1-0.2-0.2-0.2S126.6,285.8,126.6,285.9z"/>
	<circle cx="136.4" cy="286.4" r="0.2"/>
	<path d="M146.2,286.5c0.1,0,0.2-0.1,0.2-0.2c0-0.1-0.1-0.2-0.2-0.2c-0.1,0-0.2,0.1-0.2,0.2C146,286.4,146.1,286.5,146.2,286.5z"/>
	<path d="M155.6,285.7c0,0.1,0.1,0.2,0.2,0.2c0.1,0,0.2-0.1,0.2-0.2c0-0.1-0.1-0.2-0.2-0.2C155.7,285.5,155.6,285.6,155.6,285.7z"/>
	<path d="M165.2,284.6c0,0.1,0.1,0.2,0.2,0.2c0.1,0,0.2-0.1,0.2-0.2c0-0.1-0.1-0.2-0.2-0.2C165.2,284.4,165.2,284.5,165.2,284.6z"/>
	<path d="M174.4,282.9c0,0.1,0.1,0.1,0.2,0.1s0.1-0.1,0.1-0.1c0-0.1-0.1-0.2-0.1-0.2C174.5,282.8,174.4,282.9,174.4,282.9z"/>
	<circle cx="183.5" cy="280.8" r="0.1"/>
	<path d="M191.9,278.3C191.9,278.3,192,278.2,191.9,278.3c0.1-0.1,0-0.2,0-0.2S191.8,278.2,191.9,278.3
		C191.8,278.2,191.8,278.3,191.9,278.3z"/>
	<path d="M199.8,275.2C199.8,275.2,199.8,275.2,199.8,275.2C199.8,275.1,199.8,275.1,199.8,275.2
		C199.8,275.1,199.7,275.1,199.8,275.2C199.7,275.2,199.8,275.2,199.8,275.2z"/>
	<path d="M114,285.2C114,285.2,114,285.2,114,285.2C114,285.2,114,285.2,114,285.2C114,285.2,114,285.2,114,285.2
		C114,285.2,114,285.2,114,285.2z"/>
	<path d="M122.9,286.5C122.9,286.5,123,286.5,122.9,286.5C123,286.4,123,286.4,122.9,286.5C122.9,286.4,122.9,286.4,122.9,286.5
		C122.9,286.5,122.9,286.5,122.9,286.5z"/>
	<path d="M132,287.2C132.1,287.2,132.1,287.2,132,287.2C132.1,287.2,132.1,287.1,132,287.2C132,287.1,132,287.2,132,287.2
		C132,287.2,132,287.2,132,287.2z"/>
	<path d="M141.2,287.4C141.3,287.4,141.3,287.4,141.2,287.4C141.3,287.3,141.3,287.3,141.2,287.4
		C141.2,287.3,141.2,287.3,141.2,287.4C141.2,287.4,141.2,287.4,141.2,287.4z"/>
	<path d="M150.4,287.1C150.5,287.1,150.5,287.1,150.4,287.1c0.1-0.1,0-0.2,0-0.2S150.3,287,150.4,287.1
		C150.3,287.1,150.4,287.1,150.4,287.1z"/>
	<path d="M159.5,286.2C159.5,286.2,159.5,286.2,159.5,286.2C159.5,286.1,159.5,286.1,159.5,286.2
		C159.5,286.1,159.4,286.1,159.5,286.2C159.4,286.2,159.5,286.2,159.5,286.2z"/>
	<path d="M168.4,284.8C168.4,284.8,168.4,284.8,168.4,284.8C168.4,284.7,168.4,284.7,168.4,284.8
		C168.3,284.7,168.3,284.7,168.4,284.8C168.3,284.8,168.3,284.8,168.4,284.8z"/>
	<path d="M177.2,284C177.2,284,177.2,284,177.2,284C177.2,284,177.2,284,177.2,284C177.2,284,177.2,284,177.2,284
		C177.2,284,177.2,284,177.2,284z"/>
	<path d="M186.2,284C186.2,284,186.2,284,186.2,284C186.2,284,186.2,284,186.2,284C186.2,284,186.2,284,186.2,284
		C186.2,284,186.2,284,186.2,284z"/>
</g>
</svg>
